<?xml version="1.0" encoding="utf-8"?>
<!-- Generator: Adobe Illustrator 16.0.0, SVG Export Plug-In . SVG Version: 6.00 Build 0)  -->
<!DOCTYPE svg PUBLIC "-//W3C//DTD SVG 1.1//EN" "http://www.w3.org/Graphics/SVG/1.1/DTD/svg11.dtd">
<svg version="1.1" id="Layer_1" xmlns="http://www.w3.org/2000/svg" xmlns:xlink="http://www.w3.org/1999/xlink" x="0px" y="0px"
	 width="40px" height="40px" viewBox="0 0 40 40" enable-background="new 0 0 40 40" xml:space="preserve">
<g>
	<path display="none" fill-rule="evenodd" clip-rule="evenodd" fill="#FFFFFF" d="M5.271,40.078c-1.559,0,4.816-30.789,9.308-37.656
		c0.542-0.829-0.522-2.392,0-2.392c-0.405,0.221-0.509,0.575-0.482,1.011c0.024,0.39,0.006,0.782,0.005,1.173
		C14.1,2.747,14.1,2.749,13.558,2.75c-2.606,0.001-5.213,0-7.82,0.001c-0.857,0-0.989,0.135-0.989,1.004
		c0,11.769,0.002,23.537-0.008,35.305C4.74,39.521,4.833,39.874,5.271,40.078z"/>
	<path display="none" fill-rule="evenodd" clip-rule="evenodd" fill="#FFFFFF" d="M25.529,0.03c4.847,0,11.054,40.048,9.309,40.048
		c0.438-0.204,0.53-0.557,0.53-1.019c-0.011-11.781-0.009-23.563-0.009-35.344c0-0.104,0.004-0.208-0.001-0.313
		c-0.02-0.386-0.213-0.603-0.598-0.638c-0.246-0.022-0.495-0.015-0.742-0.015c-2.516-0.001-5.03-0.006-7.546,0.005
		c-0.349,0.001-0.494-0.1-0.472-0.464c0.025-0.416-0.014-0.835,0.011-1.25C26.037,0.604,25.935,0.251,25.529,0.03z"/>
	<path display="none" fill-rule="evenodd" clip-rule="evenodd" fill="#FFFFFF" d="M20.051,1.332c1.433,0,2.864,0.012,4.296-0.008
		c0.354-0.005,0.439,0.106,0.434,0.443c-0.02,1.093-0.017,2.187-0.002,3.28c0.004,0.296-0.107,0.385-0.385,0.384
		c-2.891-0.005-5.781-0.005-8.671,0c-0.272,0-0.396-0.074-0.392-0.377c0.015-1.12,0.015-2.24,0-3.359
		c-0.004-0.301,0.104-0.372,0.386-0.369C17.161,1.338,18.605,1.332,20.051,1.332z"/>
	<g id="XMLID_1_">
		<g>
			<path fill="#FFFFFF" d="M35.36,3.72c0,11.78,0,23.56,0.01,35.339c0,0.46-0.09,0.811-0.53,1.021c-9.859,0-19.71,0-29.57,0
				c-0.44-0.21-0.53-0.561-0.53-1.021C4.75,27.29,4.75,15.52,4.75,3.75c0-0.86,0.13-1,0.99-1c2.6,0,5.21,0,7.82,0
				c0.54,0,0.54,0,0.54-0.54c0-0.39,0.02-0.78,0-1.17c-0.03-0.44,0.07-0.79,0.48-1.01c3.65,0,7.3,0,10.95,0
				c0.399,0.22,0.51,0.57,0.479,1.01C25.99,1.46,26.03,1.88,26,2.29c-0.02,0.37,0.12,0.47,0.47,0.47c2.521-0.02,5.03-0.01,7.55-0.01
				c0.25,0,0.49-0.01,0.74,0.02C35.15,2.8,35.34,3.02,35.36,3.4C35.36,3.51,35.36,3.61,35.36,3.72z M34.13,38.1
				c0-11.149,0-22.29,0-33.439c0-0.1-0.01-0.21,0-0.31c0.01-0.26-0.09-0.36-0.37-0.36C31.3,4,28.84,4,26.37,3.99
				C26.1,3.99,26,4.08,26,4.34c0.01,0.54,0.01,1.07,0,1.61c-0.01,0.5-0.22,0.7-0.72,0.7c-3.49,0.01-6.97,0.01-10.45,0
				c-0.5,0-0.71-0.2-0.72-0.7c-0.02-0.51-0.02-1.02,0-1.53c0.01-0.34-0.11-0.44-0.45-0.43c-2.39,0.01-4.77,0-7.16,0
				c-0.51,0-0.52,0-0.52,0.52c0,11.24,0,22.49,0,33.74c0,0.17,0.03,0.33,0.05,0.53c0.21,0,0.39,0,0.57,0c8.96,0,17.91,0,26.87-0.011
				C34.12,38.77,34.13,38.94,34.13,38.1z M24.78,1.77c0.01-0.34-0.08-0.45-0.431-0.45c-1.43,0.02-2.869,0.01-4.3,0.01
				c-1.44,0-2.89,0.01-4.33,0c-0.29-0.01-0.39,0.06-0.39,0.37c0.02,1.11,0.02,2.23,0,3.35c0,0.31,0.12,0.38,0.39,0.38
				c2.89,0,5.78,0,8.669,0c0.28,0,0.391-0.09,0.391-0.38C24.76,3.95,24.76,2.86,24.78,1.77z"/>
			<path fill="#FFFFFF" d="M32.25,36.11c0.35,0,0.47,0.09,0.46,0.449c-0.03,0.82-0.01,0.82-0.84,0.82c-1.95,0-3.89,0-5.83,0
				c-2.04,0-4.07-0.01-6.1,0.01c-0.4,0-0.52-0.109-0.5-0.51c0.03-0.76,0-0.76,0.76-0.76C24.22,36.12,28.23,36.12,32.25,36.11z"/>
			<path fill="#FFFFFF" d="M32.25,30.78c0.36,0,0.47,0.1,0.46,0.46c-0.03,0.77-0.01,0.77-0.77,0.77c-1.301,0-2.61,0-3.91,0
				c-1.391,0-2.79-0.01-4.181,0.01c-0.33,0-0.42-0.1-0.42-0.43c0.021-0.8,0-0.8,0.811-0.8C26.91,30.79,29.58,30.8,32.25,30.78z"/>
			<path fill="#FFFFFF" d="M32.7,33.98c-0.01,0.77,0.13,0.699-0.72,0.699c-3.971,0-7.95,0-11.921,0c-4.04,0-8.08,0-12.12,0
				c-0.53,0-0.53,0-0.53-0.54c0.01-0.79-0.11-0.68,0.68-0.68c8.03-0.01,16.05-0.01,24.08-0.01C32.7,33.45,32.7,33.45,32.7,33.98z"/>
			<path fill="#FFFFFF" d="M32.7,12.31c0,5.39,0,10.77,0,16.15c0,0.69-0.19,0.88-0.87,0.88c-1.2,0-2.4,0-3.6,0
				c-0.58,0-0.79-0.21-0.801-0.8c0-2.71,0-5.42,0-8.13c0-2.7,0-5.4,0-8.09c0-0.69,0.221-0.91,0.91-0.91c1.15-0.01,2.3-0.01,3.44,0
				C32.48,11.41,32.7,11.63,32.7,12.31z M31.44,27.68c-0.011-4.85-0.011-9.709-0.011-14.57c0-0.14-0.02-0.27-0.02-0.41
				c-0.92,0-1.79,0-2.71,0c0,0.2,0,0.36,0,0.51c0,2.01,0,4.02,0,6.02c0,2.81,0.01,5.63-0.01,8.44c0,0.37,0.119,0.47,0.47,0.46
				c0.609-0.02,1.229-0.02,1.84,0C31.34,28.14,31.44,28.03,31.44,27.68z"/>
			<path fill="#FFFFFF" d="M31.9,6.81c0.08,0.37,0.159,0.75,0.239,1.17c-0.62,0.13-1.21,0.26-1.8,0.38
				c-1.49,0.3-2.979,0.58-4.47,0.89c-0.2,0.04-0.39,0.15-0.561,0.27c-1.77,1.17-3.54,2.34-5.3,3.53c-0.28,0.19-0.57,0.28-0.91,0.27
				c-1.7-0.01-3.41-0.01-5.12,0.01c-0.24,0-0.51,0.08-0.72,0.21c-1.5,0.91-2.99,1.85-4.48,2.78c-0.11,0.07-0.22,0.13-0.38,0.22
				c-0.22-0.36-0.42-0.67-0.63-1.02c0.13-0.1,0.24-0.18,0.36-0.26c1.56-0.98,3.13-1.96,4.71-2.93c0.22-0.14,0.53-0.22,0.79-0.22
				c1.71-0.02,3.42,0,5.13-0.02c0.26-0.01,0.56-0.1,0.79-0.24C21,10.9,22.46,9.97,23.86,8.96c0.87-0.63,1.8-0.98,2.85-1.17
				c1.68-0.29,3.36-0.66,5.04-0.99C31.79,6.79,31.83,6.8,31.9,6.81z"/>
			<path fill="#FFFFFF" d="M26,14.9c0.01,4.55,0.01,9.09,0,13.64c0,0.63-0.18,0.8-0.82,0.8c-1.22,0-2.449,0-3.67,0
				c-0.529,0-0.729-0.2-0.729-0.729c0-2.301,0-4.591,0-6.88c0-2.271,0-4.53,0-6.8c0-0.64,0.17-0.82,0.8-0.83c1.21,0,2.42,0,3.63,0
				C25.83,14.11,26,14.28,26,14.9z M24.77,21.73c0-1.99,0-3.98,0.011-5.98c0-0.31-0.08-0.43-0.42-0.42c-0.65,0.02-1.301,0.02-1.95,0
				c-0.33-0.01-0.43,0.12-0.42,0.43c0.02,0.36,0.01,0.73,0.01,1.09c0,3.6,0,7.19-0.01,10.79c0,0.36,0.1,0.511,0.479,0.49
				c0.61-0.03,1.23-0.02,1.84,0c0.351,0.01,0.471-0.09,0.471-0.46C24.76,25.69,24.77,23.71,24.77,21.73z"/>
			<path fill="#FFFFFF" d="M21.55,30.78c0.37,0,0.47,0.12,0.45,0.47c-0.03,0.89,0.11,0.76-0.77,0.76c-4.431,0-8.851,0-13.28,0
				c-0.54,0-0.54,0-0.54-0.52c0-0.7,0-0.7,0.7-0.7c2.2,0,4.4,0,6.6,0C16.99,30.79,19.27,30.8,21.55,30.78z"/>
			<path fill="#FFFFFF" d="M19.33,23.09c0,1.83,0,3.65,0,5.48c0,0.58-0.19,0.77-0.77,0.77c-1.23,0-2.47,0-3.71,0
				c-0.53,0-0.74-0.189-0.74-0.72c-0.01-3.7-0.01-7.41,0-11.11c0-0.54,0.19-0.73,0.72-0.73c1.26-0.01,2.51-0.01,3.76,0
				c0.55,0,0.74,0.2,0.74,0.76C19.33,19.39,19.33,21.24,19.33,23.09z M18.12,27.68c-0.02-0.97-0.01-1.93-0.01-2.89
				c0-2.09,0-4.17,0-6.26c0-0.53,0-0.53-0.54-0.53c-0.6,0-1.2,0.02-1.8-0.01c-0.35-0.01-0.44,0.11-0.44,0.45
				c0.02,1.54,0.01,3.07,0.01,4.61c0,1.55,0,3.101-0.01,4.65c0,0.33,0.1,0.439,0.42,0.43c0.64-0.02,1.28-0.02,1.92,0
				C18.01,28.14,18.12,28.02,18.12,27.68z"/>
			<path fill="#FFFFFF" d="M18.01,36.53c-0.02,0.85,0,0.85-0.85,0.85c-3.07,0-6.15,0-9.22,0c-0.53,0-0.53,0-0.53-0.5
				c0-0.76,0-0.76,0.76-0.76c1.52,0,3.05,0,4.57,0c1.62,0,3.23,0,4.85-0.01C17.92,36.11,18.01,36.2,18.01,36.53z"/>
			<path fill="#FFFFFF" d="M12.67,20.21c0.01,2.78,0.01,5.57,0,8.36c0,0.54-0.22,0.77-0.75,0.77c-1.25,0-2.5,0-3.75,0
				c-0.53,0-0.76-0.22-0.76-0.76c0-1.41,0-2.82,0-4.22c0-1.37,0-2.74,0-4.11c0-0.59,0.21-0.8,0.79-0.8c1.24-0.01,2.48-0.01,3.72,0
				C12.45,19.45,12.67,19.67,12.67,20.21z M11.41,27.76c-0.01-2.25-0.01-4.49,0-6.729c0-0.3-0.11-0.38-0.39-0.37
				c-0.65,0.01-1.3,0.02-1.95,0c-0.32-0.01-0.4,0.109-0.4,0.41c0.02,1.109,0.01,2.21,0.01,3.319c0,1.12,0,2.24-0.01,3.36
				c0,0.27,0.08,0.38,0.35,0.38c0.68-0.02,1.36-0.02,2.04,0C11.33,28.13,11.41,28.02,11.41,27.76z"/>
		</g>
		<g>
		</g>
	</g>
	<path display="none" fill-rule="evenodd" clip-rule="evenodd" fill="#FFFFFF" d="M28.702,12.698c0.921,0,1.788,0,2.703,0
		c0.009,0.139,0.023,0.275,0.023,0.412c0.002,4.858-0.002,9.716,0.009,14.575c0,0.342-0.096,0.459-0.44,0.445
		c-0.611-0.023-1.225-0.022-1.836,0c-0.349,0.013-0.469-0.088-0.467-0.458c0.015-2.813,0.008-5.627,0.008-8.44
		c0-2.006,0-4.012,0-6.018C28.702,13.059,28.702,12.904,28.702,12.698z"/>
	<path display="none" fill-rule="evenodd" clip-rule="evenodd" fill="#FFFFFF" d="M24.772,21.732c0,1.979-0.009,3.959,0.009,5.938
		c0.003,0.372-0.124,0.471-0.472,0.459c-0.611-0.021-1.225-0.025-1.836,0.001c-0.383,0.018-0.485-0.126-0.483-0.494
		c0.011-3.594,0.006-7.188,0.006-10.783c0-0.365,0.016-0.73-0.004-1.094c-0.017-0.313,0.084-0.442,0.419-0.431
		c0.65,0.022,1.302,0.023,1.952,0c0.332-0.011,0.417,0.108,0.415,0.426C24.767,17.747,24.772,19.74,24.772,21.732z"/>
	<path display="none" fill-rule="evenodd" clip-rule="evenodd" fill="#FFFFFF" d="M15.336,23.052c0-1.538,0.009-3.076-0.007-4.613
		c-0.003-0.34,0.09-0.462,0.44-0.447c0.598,0.025,1.198,0.006,1.798,0.007c0.543,0,0.545,0.001,0.545,0.532c0,2.085,0,4.17,0,6.256
		c0,0.964-0.011,1.929,0.006,2.893c0.006,0.34-0.104,0.463-0.448,0.451c-0.638-0.021-1.277-0.02-1.915-0.001
		c-0.321,0.01-0.428-0.099-0.425-0.425C15.344,26.153,15.336,24.603,15.336,23.052z"/>
	<path display="none" fill-rule="evenodd" clip-rule="evenodd" fill="#FFFFFF" d="M8.679,24.392c0-1.107,0.009-2.216-0.006-3.323
		c-0.004-0.301,0.078-0.42,0.393-0.41c0.651,0.019,1.303,0.014,1.955,0.001c0.275-0.006,0.393,0.068,0.391,0.372
		c-0.011,2.241-0.009,4.483-0.001,6.725c0.001,0.265-0.076,0.377-0.353,0.371c-0.678-0.013-1.355-0.013-2.033,0
		c-0.279,0.006-0.354-0.109-0.351-0.373C8.685,26.634,8.679,25.513,8.679,24.392z"/>
</g>
</svg>
