<?xml version="1.0" encoding="utf-8"?>
<!-- Generator: Adobe Illustrator 19.0.0, SVG Export Plug-In . SVG Version: 6.00 Build 0)  -->
<svg version="1.1" xmlns="http://www.w3.org/2000/svg" xmlns:xlink="http://www.w3.org/1999/xlink" x="0px" y="0px"
	 viewBox="0 0 800 800" style="enable-background:new 0 0 800 800;" xml:space="preserve">
<style type="text/css">
	.st0{opacity:0.5;fill:url(#SVGID_1_);}
	.st1{display:none;}
	.st2{display:inline;fill:#EDEFC7;}
	.st3{display:none;opacity:0.4;fill:#87888A;}
	.st4{display:inline;}
	.st5{fill:#FDFFD4;}
	.st6{display:inline;fill:#FDFFD4;}
	.st7{display:none;fill:#ECECF0;}
	.st8{display:none;opacity:0.4;fill:#B2B3B5;}
	.st9{display:inline;fill:#FFFFFF;}
	.st10{fill:#ECECF0;}
	.st11{fill:#88BA34;}
	.st12{display:inline;fill:#B0B1B3;}
	.st13{display:inline;fill:#BDBEC0;}
	.st14{display:inline;fill:#D1D2D4;}
	.st15{fill:#B0B1B3;}
	.st16{fill:none;stroke:#B0B1B3;stroke-linecap:round;stroke-linejoin:round;stroke-miterlimit:10;}
	.st17{fill:#00695C;}
	.st18{fill:#00907E;}
	.st19{fill:#FFFFFF;}
	.st20{fill:#B4B3B3;}
	.st21{fill:#EDEFC7;}
	.st22{fill:#D2D2D2;}
	.st23{fill:#DDDDE0;}
	.st24{display:inline;fill:#D2D2D2;}
	.st25{display:inline;fill:#FDFFFE;}
	.st26{display:inline;fill:#543823;}
	.st27{display:inline;fill:#FCB040;}
	.st28{display:inline;fill:#E6A03A;}
	.st29{display:inline;fill:#ECECF0;}
</style>
<symbol  id="Новый_символ" viewBox="-31.3 -31.3 62.6 62.6">
	
		<radialGradient id="SVGID_1_" cx="-122.3882" cy="-122.0102" r="31.2942" gradientTransform="matrix(0.9999 -1.570000e-002 1.570000e-002 0.9999 124.2918 120.0766)" gradientUnits="userSpaceOnUse">
		<stop  offset="0" style="stop-color:#FFFFFF"/>
		<stop  offset="0.8163" style="stop-color:#201600"/>
		<stop  offset="1" style="stop-color:#000000"/>
	</radialGradient>
	<path class="st0" d="M31.3-0.5C31-17.8,16.8-31.6-0.5-31.3C-17.8-31-31.6-16.8-31.3,0.5C-31,17.8-16.8,31.6,0.5,31.3
		C17.8,31,31.6,16.8,31.3-0.5z"/>
</symbol>
<symbol  id="Новый_символ_1" viewBox="-19.5 -19.5 39 39">
	
		<use xlink:href="#Новый_символ"  width="62.6" height="62.6" x="-31.3" y="-31.3" transform="matrix(0.6235 0 0 0.6235 0 0)" style="overflow:visible;"/>
</symbol>
<g id="BACKGROUND" class="st1">
	<rect class="st2" width="800" height="800"/>
</g>
<g id="OBJECTS">
	<path class="st3" d="M240,379.7l-8-8c-1-1-2.6-1-3.6,0l-2.5,2.5c-1,1-1,2.6,0,3.6l1,1l-1.1,1.1c-0.9,0.9-1,2.2-0.3,3.2l-4.3,4.3
		c-9.3-9.5-22-15.6-36.2-16.4v-3c2.2,0,4.1-1.8,4.1-4.1v-2.6h1.7c2.2,0,4.1-1.8,4.1-4.1v-5.8c0-2.2-1.8-4.1-4.1-4.1h-18.3
		c-2.2,0-4.1,1.8-4.1,4.1v5.8c0,2.2,1.8,4.1,4.1,4.1h2.4v2.6c0,2,1.4,3.6,3.3,4v3.2c-13.9,1-26.3,7.1-35.4,16.6l-4.6-4.6
		c0.7-1,0.6-2.3-0.3-3.2l-1.1-1.1l1-1c1-1,1-2.6,0-3.6l-2.5-2.5c-1-1-2.6-1-3.6,0l-8,8c-1,1-1,2.6,0,3.6l2.5,2.5c1,1,2.6,1,3.6,0
		l0.7-0.7l1.1,1.1c1,1,2.6,1,3.6,0l0,0l4.7,4.7c-7.8,9.5-12.6,21.6-12.6,34.9c0,30.3,24.5,54.8,54.8,54.8
		c30.3,0,54.8-24.5,54.8-54.8c0-13.9-5.2-26.7-13.8-36.3l1.1,1.1l4.3-4.3l0,0c1,1,2.6,1,3.6,0l1.1-1.1l0.7,0.7c1,1,2.6,1,3.6,0
		l2.5-2.5C241,382.3,241,380.7,240,379.7z"/>
	<g class="st1">
		<g class="st4">
			<g>
				<path class="st5" d="M571.1,258.7c-12.7,0-23-8.2-23-18.3S555,222,563.4,222c8.5,0,15.4-8.3,15.4-18.5s-10.3-18.5-23-18.5h-77.3
					c-12.6,0-23-8.3-23-18.5s-10.3-18.5-23-18.5h-27.2c-12.6,0-23-8.3-23-18.5s-10.4-18.5-23-18.5H258.9c-12.6,0-23,8.3-23,18.5
					s-10.3,18.5-23,18.5h-38.7c-12.6,0-23,8.3-23,18.5s10.4,18.5,23,18.5h44.9c12.6,0,23,8.3,23,18.4c0,10.1-10.2,18.4-22.7,18.4
					c-12.5,0-22.7,8.3-22.7,18.4c0,10.1-10.2,18.4-22.7,18.4s-22.7,8.3-22.7,18.5c0,10.2,10.4,18.5,23,18.5h431.1
					c12.7,0,23-8.3,23-18.5c0-10.2-10.3-18.5-23-18.5H571.1z M306.6,166.1c0,8.9-10.3,16.2-22.9,16.2h-6.8c-12.7,0-23-7.4-23-16.4
					c0-9,10.3-16.3,23-16.2l6.6,0C296.1,149.8,306.5,157.2,306.6,166.1z"/>
			</g>
		</g>
		<g class="st4">
			<path class="st5" d="M241.3,582.7c-12.1,0-22,9.9-22,22v1.7c0,12.1-9.9,22-22,22h-8.5c-12.1,0-22,9.9-22,22v1.7
				c0,12.1,9.9,22,22,22h270.5c12.1,0,22-9.9,22-22v-1.7c0-12.1,9.9-22,22-22h76.5c12.1,0,22-9.9,22-22v-1.7c0-12.1,9.9-22,22-22
				H665c12.1,0,22-9.9,22-22V559c0-12.1-9.9-22-22-22h-21c-12.1,0-22-9.9-22-22v-1.5c0-12.1-9.9-22-22-22H217.2
				c-12.1,0-22,9.9-22,22v1.7c0,12.1,9.9,22,22,22h34.3c12.1,0,22,9.9,22,22v1.5c0,12.1-9.9,22-22,22H241.3z"/>
		</g>
		<g class="st4">
			<path class="st5" d="M722.4,141c0-2.7-2.5-5-5.5-5c-3,0-5.5-2.5-5.5-5.5c0-3-2.2-5.5-5-5.5c-2.7,0-5,2.5-5,5.5
				c0,3-2.5,5.5-5.5,5.5c-3,0-5.5,2.2-5.5,5c0,2.7,2.5,5,5.5,5c3,0,5.5,2.5,5.5,5.5c0,3,2.2,5.5,5,5.5c2.7,0,5-2.5,5-5.5
				c0-3,2.5-5.5,5.5-5.5C719.9,145.9,722.4,143.7,722.4,141z"/>
		</g>
		<g class="st4">
			<path class="st5" d="M177.2,718.2c0-2.2-2-4-4.5-4s-4.5-2-4.5-4.5c0-2.5-1.8-4.5-4-4.5c-2.2,0-4,2-4,4.5c0,2.5-2,4.5-4.5,4.5
				c-2.5,0-4.5,1.8-4.5,4c0,2.2,2,4,4.5,4c2.5,0,4.5,2,4.5,4.5s1.8,4.5,4,4.5c2.2,0,4-2,4-4.5s2-4.5,4.5-4.5
				S177.2,720.4,177.2,718.2z"/>
		</g>
		<g class="st4">
			<path class="st5" d="M103.4,85.9c2.2,0.3,4.3-1.4,4.6-3.9c0.3-2.4,2.6-4.2,5.1-3.8c2.4,0.3,4.7-1.2,5-3.4
				c0.3-2.2-1.4-4.3-3.9-4.6c-2.4-0.3-4.2-2.6-3.8-5.1c0.3-2.4-1.2-4.7-3.4-5c-2.2-0.3-4.3,1.4-4.6,3.9c-0.3,2.4-2.6,4.2-5.1,3.8
				c-2.4-0.3-4.7,1.2-5,3.4c-0.3,2.2,1.4,4.3,3.9,4.6c2.4,0.3,4.2,2.6,3.8,5.1C99.7,83.3,101.2,85.6,103.4,85.9z"/>
		</g>
		<g class="st4">
			<path class="st5" d="M697.6,758c1.2-1.9,0.4-4.5-1.7-5.8c-2.1-1.3-2.8-4.1-1.5-6.2c1.3-2.1,0.8-4.8-1.1-5.9
				c-1.9-1.2-4.5-0.4-5.8,1.7c-1.3,2.1-4.1,2.8-6.2,1.5c-2.1-1.3-4.8-0.8-5.9,1.1c-1.2,1.9-0.4,4.5,1.7,5.8c2.1,1.3,2.8,4.1,1.5,6.2
				c-1.3,2.1-0.8,4.8,1.1,5.9c1.9,1.2,4.5,0.4,5.8-1.7c1.3-2.1,4.1-2.8,6.2-1.5S696.4,759.9,697.6,758z"/>
		</g>
		<circle class="st6" cx="64.7" cy="571.6" r="6.1"/>
		<circle class="st6" cx="51.1" cy="316.8" r="13.6"/>
	</g>
	<path class="st7" d="M1714.6,1279c0-0.9,0.1-1.7,0.1-2.6C1714.8,1276.4,1714.7,1277.3,1714.6,1279z"/>
	
		<rect x="451.3" y="335.9" transform="matrix(0.395 -0.9187 0.9187 0.395 -53.8371 796.3467)" class="st8" width="252.9" height="206.4"/>
	<path class="st8" d="M530.6,259h-47.9c-1.3-5.9-6.5-10.3-12.8-10.3h-40.6c-2.9-7.7-10.3-13.2-19-13.2c-8.7,0-16.1,5.5-19,13.2
		h-40.6c-6.3,0-11.5,4.4-12.8,10.3h-47.9c-4.9,0-8.8,3.8-8.8,8.5v0.3v300.4v10.9c0,4.9,4,8.8,8.8,8.8h240.5c4.9,0,8.8-4,8.8-8.8
		v-10.9V267.9v-0.3C539.4,262.8,535.4,259,530.6,259z"/>
	<g class="st1">
		
			<rect x="467" y="301" transform="matrix(0.9187 0.395 -0.395 0.9187 215.2325 -190.4958)" class="st9" width="206.4" height="252.9"/>
		<g class="st4">
			<path class="st10" d="M667.4,380.4c-0.4,0.9-1.5,1.2-2.5,0.8L538.7,327c-1-0.4-1.5-1.5-1.2-2.4c0.4-0.9,1.5-1.2,2.5-0.8
				l126.2,54.3C667.2,378.5,667.8,379.6,667.4,380.4z"/>
		</g>
		<g class="st4">
			<path class="st10" d="M620.4,367.1c-0.4,0.9-1.5,1.2-2.5,0.8l-81.7-35.1c-1-0.4-1.5-1.5-1.2-2.4c0.4-0.9,1.5-1.2,2.5-0.8
				l81.7,35.1C620.3,365.1,620.8,366.2,620.4,367.1z"/>
		</g>
		<g class="st4">
			<path class="st10" d="M597.5,364.1c-0.4,0.9-1.5,1.2-2.5,0.8l-61.3-26.3c-1-0.4-1.5-1.5-1.2-2.4c0.4-0.9,1.5-1.2,2.5-0.8
				l61.3,26.3C597.3,362.2,597.8,363.3,597.5,364.1z"/>
		</g>
		<g class="st4">
			<path class="st10" d="M655.1,408.9c-0.4,0.9-1.5,1.2-2.5,0.8l-126.2-54.3c-1-0.4-1.5-1.5-1.2-2.4c0.4-0.9,1.5-1.2,2.5-0.8
				L654,406.5C655,407,655.5,408.1,655.1,408.9z"/>
		</g>
		<g class="st4">
			<path class="st10" d="M608.1,395.5c-0.4,0.9-1.5,1.2-2.5,0.8L524,361.2c-1-0.4-1.5-1.5-1.2-2.4c0.4-0.9,1.5-1.2,2.5-0.8
				l81.7,35.1C608,393.6,608.5,394.7,608.1,395.5z"/>
		</g>
		<g class="st4">
			<path class="st10" d="M585.2,392.6c-0.4,0.9-1.5,1.2-2.5,0.8l-61.3-26.3c-1-0.4-1.5-1.5-1.2-2.4c0.4-0.9,1.5-1.2,2.5-0.8
				l61.3,26.3C585.1,390.7,585.6,391.7,585.2,392.6z"/>
		</g>
		<g class="st4">
			<path class="st10" d="M640.9,442c-0.4,0.9-1.5,1.2-2.5,0.8l-126.2-54.3c-1-0.4-1.5-1.5-1.2-2.4c0.4-0.9,1.5-1.2,2.5-0.8
				l126.2,54.3C640.8,440.1,641.3,441.1,640.9,442z"/>
		</g>
		<g class="st4">
			<path class="st10" d="M593.9,428.6c-0.4,0.9-1.5,1.2-2.5,0.8l-81.7-35.1c-1-0.4-1.5-1.5-1.2-2.4c0.4-0.9,1.5-1.2,2.5-0.8
				l81.7,35.1C593.8,426.7,594.3,427.8,593.9,428.6z"/>
		</g>
		<g class="st4">
			<path class="st10" d="M571,425.7c-0.4,0.9-1.5,1.2-2.5,0.8l-61.3-26.3c-1-0.4-1.5-1.5-1.2-2.4c0.4-0.9,1.5-1.2,2.5-0.8l61.3,26.3
				C570.8,423.8,571.4,424.8,571,425.7z"/>
		</g>
		<g class="st4">
			<path class="st10" d="M609.9,514c-0.4,0.9-1.5,1.2-2.5,0.8l-126.2-54.3c-1-0.4-1.5-1.5-1.2-2.4c0.4-0.9,1.5-1.2,2.5-0.8
				l126.2,54.3C609.8,512.1,610.3,513.2,609.9,514z"/>
		</g>
		<g class="st4">
			<path class="st10" d="M562.9,500.7c-0.4,0.9-1.5,1.2-2.5,0.8l-81.7-35.1c-1-0.4-1.5-1.5-1.2-2.4c0.4-0.9,1.5-1.2,2.5-0.8
				l81.7,35.1C562.8,498.7,563.3,499.8,562.9,500.7z"/>
		</g>
		<g class="st4">
			<path class="st10" d="M540,497.7c-0.4,0.9-1.5,1.2-2.5,0.8l-61.3-26.3c-1-0.4-1.5-1.5-1.2-2.4c0.4-0.9,1.5-1.2,2.5-0.8l61.3,26.3
				C539.9,495.8,540.4,496.9,540,497.7z"/>
		</g>
		<g class="st4">
			<path class="st10" d="M628.8,470.2c-0.4,0.9-1.5,1.2-2.5,0.8l-126.2-54.3c-1-0.4-1.5-1.5-1.2-2.4c0.4-0.9,1.5-1.2,2.5-0.8
				l126.2,54.3C628.6,468.3,629.1,469.4,628.8,470.2z"/>
		</g>
		<g class="st4">
			<path class="st10" d="M581.8,456.9c-0.4,0.9-1.5,1.2-2.5,0.8l-81.7-35.1c-1-0.4-1.5-1.5-1.2-2.4c0.4-0.9,1.5-1.2,2.5-0.8
				l81.7,35.1C581.6,454.9,582.2,456,581.8,456.9z"/>
		</g>
		<g class="st4">
			<path class="st10" d="M574,475c-0.4,0.9-1.5,1.2-2.5,0.8l-81.7-35.1c-1-0.4-1.5-1.5-1.2-2.4c0.4-0.9,1.5-1.2,2.5-0.8l81.7,35.1
				C573.8,473.1,574.3,474.2,574,475z"/>
		</g>
		<g class="st4">
			<path class="st10" d="M558.8,453.9c-0.4,0.9-1.5,1.2-2.5,0.8l-61.3-26.3c-1-0.4-1.5-1.5-1.2-2.4c0.4-0.9,1.5-1.2,2.5-0.8
				l61.3,26.3C558.7,452,559.2,453.1,558.8,453.9z"/>
		</g>
		<g class="st4">
			<path class="st10" d="M545.1,455.3c-0.4,0.9-1.5,1.2-2.5,0.8l-50.2-21.6c-1-0.4-1.5-1.5-1.2-2.4c0.4-0.9,1.5-1.2,2.5-0.8
				l50.2,21.6C545,453.4,545.5,454.4,545.1,455.3z"/>
		</g>
		<g class="st4">
			<path class="st11" d="M650,396.1c-0.1,0-0.2,0-0.3-0.1c-0.2-0.1-0.4-0.3-0.4-0.5l-2.2-9.2c-0.1-0.4,0.1-0.7,0.4-0.9
				c0.1,0,0.2-0.1,0.3-0.1c0.3,0,0.5,0.1,0.6,0.4l3.2,5.3l12-4c0.1,0,0.2,0,0.2,0c0.3,0,0.6,0.2,0.7,0.4c0.2,0.4,0,0.8-0.3,1
				l-13.9,7.6C650.3,396.1,650.1,396.1,650,396.1z"/>
			<path class="st11" d="M647.8,386.2l3.6,5.9l12.5-4.2l-13.9,7.6L647.8,386.2 M663.9,387.8L663.9,387.8 M647.8,384.7
				c-0.2,0-0.4,0-0.6,0.1c-0.7,0.3-1.1,1-0.9,1.7l2.2,9.2c0.1,0.5,0.4,0.8,0.8,1c0.2,0.1,0.4,0.1,0.6,0.1c0.2,0,0.5-0.1,0.7-0.2
				l13.9-7.6c0.5-0.2,0.8-0.8,0.8-1.3c0-0.8-0.6-1.5-1.4-1.5c0,0-0.1,0-0.1,0c-0.1,0-0.1,0-0.2,0c-0.1,0-0.2,0-0.3,0.1l-11.4,3.8
				l-2.9-4.8C648.8,384.9,648.3,384.7,647.8,384.7L647.8,384.7z"/>
		</g>
		<g class="st4">
			<path class="st11" d="M593.4,527.7c-0.1,0-0.2,0-0.3-0.1c-0.2-0.1-0.4-0.3-0.4-0.5l-2.2-9.2c-0.1-0.4,0.1-0.7,0.4-0.9
				c0.1,0,0.2-0.1,0.3-0.1c0.3,0,0.5,0.1,0.6,0.4l3.2,5.3l12-4c0.1,0,0.2,0,0.2,0c0.3,0,0.6,0.2,0.7,0.4c0.2,0.4,0,0.8-0.3,1
				l-13.9,7.6C593.7,527.7,593.6,527.7,593.4,527.7z"/>
			<path class="st11" d="M591.2,517.7l3.6,5.9l12.5-4.2l-13.9,7.6L591.2,517.7 M607.3,519.4L607.3,519.4 M591.2,516.2
				c-0.2,0-0.4,0-0.6,0.1c-0.7,0.3-1.1,1-0.9,1.7l2.2,9.2c0.1,0.5,0.4,0.8,0.8,1c0.2,0.1,0.4,0.1,0.6,0.1c0.2,0,0.5-0.1,0.7-0.2
				l13.9-7.6c0.5-0.2,0.8-0.8,0.8-1.3c0-0.8-0.6-1.5-1.4-1.5c0,0-0.1,0-0.1,0c-0.1,0-0.1,0-0.2,0c-0.1,0-0.2,0-0.3,0.1l-11.4,3.8
				l-2.9-4.8C592.2,516.5,591.8,516.2,591.2,516.2L591.2,516.2z"/>
		</g>
		<g class="st4">
			<path class="st11" d="M622.8,459.4c-0.1,0-0.2,0-0.3-0.1c-0.2-0.1-0.4-0.3-0.4-0.5l-2.2-9.2c-0.1-0.4,0.1-0.7,0.4-0.9
				c0.1,0,0.2-0.1,0.3-0.1c0.3,0,0.5,0.1,0.6,0.4l3.2,5.3l12-4c0.1,0,0.2,0,0.2,0c0.3,0,0.6,0.2,0.7,0.4c0.2,0.4,0,0.8-0.3,1
				l-13.9,7.6C623.1,459.4,622.9,459.4,622.8,459.4z"/>
			<path class="st11" d="M620.6,449.4l3.6,5.9l12.5-4.2l-13.9,7.6L620.6,449.4 M636.7,451.1L636.7,451.1 M620.6,447.9
				c-0.2,0-0.4,0-0.6,0.1c-0.7,0.3-1.1,1-0.9,1.7l2.2,9.2c0.1,0.5,0.4,0.8,0.8,1c0.2,0.1,0.4,0.1,0.6,0.1c0.2,0,0.5-0.1,0.7-0.2
				l13.9-7.6c0.5-0.2,0.8-0.8,0.8-1.3c0-0.8-0.6-1.5-1.4-1.5c0,0-0.1,0-0.1,0c-0.1,0-0.1,0-0.2,0c-0.1,0-0.2,0-0.3,0.1l-11.4,3.8
				l-2.9-4.8C621.6,448.2,621.1,447.9,620.6,447.9L620.6,447.9z"/>
		</g>
	</g>
	<g class="st1">
		<polygon class="st12" points="181.6,371.4 181.6,371.4 174.8,371.4 174.8,371.4 174.8,362.6 174.8,362.6 181.6,362.6 181.6,362.6 
					"/>
		<polygon class="st12" points="220.8,388 220.8,388 217.8,384.9 217.8,384.9 223.6,379.1 223.6,379.1 226.6,382.2 226.6,382.2 		
			"/>
		<polygon class="st12" points="137.3,389.1 137.3,389.1 140.3,386.1 140.3,386.1 133.3,379.1 133.3,379.1 130.3,382.1 130.3,382.1 
					"/>
		<path class="st13" d="M185.7,361.4c0,2.2-1.8,4.1-4.1,4.1h-6.1c-2.2,0-4.1-1.8-4.1-4.1v-2.8c0-2.2,1.8-4.1,4.1-4.1h6.1
			c2.2,0,4.1,1.8,4.1,4.1V361.4z"/>
		<path class="st13" d="M228.7,383.6c-1,1-2.6,1-3.6,0l-2.7-2.7c-1-1-1-2.6,0-3.6l1.2-1.2c1-1,2.6-1,3.6,0l2.7,2.7c1,1,1,2.6,0,3.6
			L228.7,383.6z"/>
		<path class="st13" d="M128.2,383.6c1,1,2.6,1,3.6,0l2.7-2.7c1-1,1-2.6,0-3.6l-1.2-1.2c-1-1-2.6-1-3.6,0l-2.7,2.7c-1,1-1,2.6,0,3.6
			L128.2,383.6z"/>
		<path class="st14" d="M191.4,354.8c0,2.2-1.8,4.1-4.1,4.1h-18.3c-2.2,0-4.1-1.8-4.1-4.1V349c0-2.2,1.8-4.1,4.1-4.1h18.3
			c2.2,0,4.1,1.8,4.1,4.1V354.8z"/>
		<path class="st14" d="M234.1,383.2c-1,1-2.6,1-3.6,0l-8-8c-1-1-1-2.6,0-3.6l2.5-2.5c1-1,2.6-1,3.6,0l8,8c1,1,1,2.6,0,3.6
			L234.1,383.2z"/>
		<path class="st14" d="M122.8,383.2c1,1,2.6,1,3.6,0l8-8c1-1,1-2.6,0-3.6l-2.5-2.5c-1-1-2.6-1-3.6,0l-8,8c-1,1-1,2.6,0,3.6
			L122.8,383.2z"/>
		<circle class="st14" cx="178.7" cy="423.2" r="54.8"/>
		<circle class="st13" cx="178.7" cy="423.2" r="43.4"/>
		<circle class="st9" cx="178.7" cy="423.2" r="38.1"/>
		<g class="st4">
			<path class="st15" d="M179.8,395.7c0,0.2-0.2,0.4-0.4,0.4h-0.9c-0.2,0-0.4-0.2-0.4-0.4v-5c0-0.2,0.2-0.4,0.4-0.4h0.9
				c0.2,0,0.4,0.2,0.4,0.4V395.7z"/>
			<path class="st15" d="M179.8,454.8c0,0.2-0.2,0.4-0.4,0.4h-0.9c-0.2,0-0.4-0.2-0.4-0.4v-5c0-0.2,0.2-0.4,0.4-0.4h0.9
				c0.2,0,0.4,0.2,0.4,0.4V454.8z"/>
			<path class="st15" d="M193.8,400.1c-0.1,0.2-0.3,0.2-0.5,0.1l-0.8-0.5c-0.2-0.1-0.2-0.3-0.1-0.5l2.6-4.2c0.1-0.2,0.3-0.2,0.5-0.1
				l0.8,0.5c0.2,0.1,0.2,0.3,0.1,0.5L193.8,400.1z"/>
			<path class="st15" d="M163,450.6c-0.1,0.2-0.3,0.2-0.5,0.1l-0.8-0.5c-0.2-0.1-0.2-0.3-0.1-0.5l2.6-4.2c0.1-0.2,0.3-0.2,0.5-0.1
				l0.8,0.5c0.2,0.1,0.2,0.3,0.1,0.5L163,450.6z"/>
			<path class="st15" d="M202.8,410c-0.2,0.1-0.4,0-0.5-0.1l-0.5-0.8c-0.1-0.2,0-0.4,0.1-0.5l4.3-2.5c0.2-0.1,0.4,0,0.5,0.1l0.5,0.8
				c0.1,0.2,0,0.4-0.1,0.5L202.8,410z"/>
			<path class="st15" d="M151.6,439.5c-0.2,0.1-0.4,0-0.5-0.1l-0.5-0.8c-0.1-0.2,0-0.4,0.1-0.5l4.3-2.5c0.2-0.1,0.4,0,0.5,0.1
				l0.5,0.8c0.1,0.2,0,0.4-0.1,0.5L151.6,439.5z"/>
			<path class="st15" d="M206,423.7c-0.2,0-0.4-0.2-0.4-0.4l0-0.9c0-0.2,0.2-0.4,0.4-0.4l5,0c0.2,0,0.4,0.2,0.4,0.4l0,0.9
				c0,0.2-0.2,0.4-0.4,0.4L206,423.7z"/>
			<path class="st15" d="M146.9,423.5c-0.2,0-0.4-0.2-0.4-0.4l0-0.9c0-0.2,0.2-0.4,0.4-0.4l5,0c0.2,0,0.4,0.2,0.4,0.4l0,0.9
				c0,0.2-0.2,0.4-0.4,0.4L146.9,423.5z"/>
			<path class="st15" d="M202,437.1c-0.2-0.1-0.2-0.3-0.1-0.5l0.5-0.8c0.1-0.2,0.3-0.2,0.5-0.1l4.3,2.5c0.2,0.1,0.2,0.3,0.1,0.5
				l-0.5,0.8c-0.1,0.2-0.3,0.2-0.5,0.1L202,437.1z"/>
			<path class="st15" d="M150.8,407.5c-0.2-0.1-0.2-0.3-0.1-0.5l0.5-0.8c0.1-0.2,0.3-0.2,0.5-0.1l4.3,2.5c0.2,0.1,0.2,0.3,0.1,0.5
				l-0.5,0.8c-0.1,0.2-0.3,0.2-0.5,0.1L150.8,407.5z"/>
			<path class="st15" d="M202,437.1c-0.2-0.1-0.2-0.3-0.1-0.5l0.5-0.8c0.1-0.2,0.3-0.2,0.5-0.1l4.3,2.5c0.2,0.1,0.2,0.3,0.1,0.5
				l-0.5,0.8c-0.1,0.2-0.3,0.2-0.5,0.1L202,437.1z"/>
			<path class="st15" d="M150.8,407.5c-0.2-0.1-0.2-0.3-0.1-0.5l0.5-0.8c0.1-0.2,0.3-0.2,0.5-0.1l4.3,2.5c0.2,0.1,0.2,0.3,0.1,0.5
				l-0.5,0.8c-0.1,0.2-0.3,0.2-0.5,0.1L150.8,407.5z"/>
			<path class="st15" d="M191.9,446.5c-0.1-0.2,0-0.4,0.1-0.5l0.8-0.5c0.2-0.1,0.4,0,0.5,0.1l2.5,4.3c0.1,0.2,0,0.4-0.1,0.5L195,451
				c-0.2,0.1-0.4,0-0.5-0.1L191.9,446.5z"/>
			<path class="st15" d="M162,395.6c-0.1-0.2,0-0.4,0.1-0.5l0.8-0.5c0.2-0.1,0.4,0,0.5,0.1l2.5,4.3c0.1,0.2,0,0.4-0.1,0.5L165,400
				c-0.2,0.1-0.4,0-0.5-0.1L162,395.6z"/>
			<circle class="st15" cx="179.4" cy="422.6" r="2.5"/>
			<line class="st16" x1="172.5" y1="427.2" x2="200.7" y2="410"/>
		</g>
	</g>
	<g>
		<path class="st17" d="M534.3,574c0,4.9-4,8.8-8.8,8.8H285c-4.9,0-8.8-4-8.8-8.8V262.7c0-4.9,4-8.8,8.8-8.8h240.5
			c4.9,0,8.8,4,8.8,8.8V574z"/>
		<path class="st18" d="M534.3,563.1c0,4.7-4,8.5-8.8,8.5H285c-4.9,0-8.8-3.8-8.8-8.5V262.4c0-4.7,4-8.5,8.8-8.5h240.5
			c4.9,0,8.8,3.8,8.8,8.5V563.1z"/>
		<rect x="291.1" y="271.7" class="st19" width="228.2" height="279.6"/>
		<g>
			<path class="st20" d="M477.9,256.7c0-7.2-5.9-13.1-13.1-13.1H345.6c-7.2,0-13.1,5.9-13.1,13.1v23h145.3V256.7z"/>
			<circle class="st20" cx="405.2" cy="250.7" r="20.3"/>
			<circle class="st21" cx="405.2" cy="244.5" r="6.2"/>
			<rect x="332.5" y="263.7" class="st22" width="145.3" height="16"/>
		</g>
		<g>
			<path class="st10" d="M479.4,332.3c0,1-0.9,1.9-2,1.9H325.2c-1.1,0-2-0.9-2-1.9c0-1,0.9-1.9,2-1.9h152.3
				C478.5,330.4,479.4,331.2,479.4,332.3z"/>
		</g>
		<g>
			<path class="st10" d="M425.9,339.2c0,1-0.9,1.9-2,1.9h-98.7c-1.1,0-2-0.9-2-1.9c0-1,0.9-1.9,2-1.9h98.7
				C425,337.3,425.9,338.2,425.9,339.2z"/>
		</g>
		<g>
			<path class="st10" d="M401.3,346.3c0,1-0.9,1.9-2,1.9h-74.1c-1.1,0-2-0.9-2-1.9c0-1,0.9-1.9,2-1.9h74.1
				C400.4,344.4,401.3,345.2,401.3,346.3z"/>
		</g>
		<g>
			<path class="st10" d="M480.5,381.2c0,1.1-0.9,2-2,2H358.4c-1.1,0-2-0.9-2-2v-1.9c0-1.1,0.9-2,2-2h120.1c1.1,0,2,0.9,2,2V381.2z"
				/>
		</g>
		<g>
			<path class="st10" d="M480.5,410.9c0,1.1-0.9,2-2,2H358.4c-1.1,0-2-0.9-2-2V409c0-1.1,0.9-2,2-2h120.1c1.1,0,2,0.9,2,2V410.9z"/>
		</g>
		<g>
			<path class="st10" d="M480.5,441.2c0,1.1-0.9,2-2,2H358.4c-1.1,0-2-0.9-2-2v-1.9c0-1.1,0.9-2,2-2h120.1c1.1,0,2,0.9,2,2V441.2z"
				/>
		</g>
		<g>
			<path class="st10" d="M480.5,469.4c0,1.1-0.9,2-2,2H358.4c-1.1,0-2-0.9-2-2v-1.9c0-1.1,0.9-2,2-2h120.1c1.1,0,2,0.9,2,2V469.4z"
				/>
		</g>
		<path class="st10" d="M344,369.6v18.5h-18.5v-18.5H344 M346.4,367.3h-23.2v23.2h23.2V367.3L346.4,367.3z"/>
		<path class="st10" d="M344,399.7v18.5h-18.5v-18.5H344 M346.4,397.4h-23.2v23.2h23.2V397.4L346.4,397.4z"/>
		<path class="st10" d="M344,429.8v18.5h-18.5v-18.5H344 M346.4,427.4h-23.2v23.2h23.2V427.4L346.4,427.4z"/>
		<path class="st10" d="M344,460.2v18.5h-18.5v-18.5H344 M346.4,457.9h-23.2v23.2h23.2V457.9L346.4,457.9z"/>
		<g>
			<path class="st17" d="M334.9,385.2c-0.2,0-0.5-0.1-0.6-0.3l-7.7-10.3c-0.2-0.3-0.2-0.7,0.1-1c0.1-0.1,0.3-0.2,0.5-0.2
				c0.2,0,0.3,0,0.4,0.1l7.1,5l12.9-11.6c0.1-0.1,0.3-0.2,0.5-0.2c0.2,0,0.4,0.1,0.5,0.2c0.3,0.3,0.3,0.7,0.1,1l-13.2,16.9
				C335.3,385.1,335.1,385.2,334.9,385.2C334.9,385.2,334.9,385.2,334.9,385.2z"/>
			<path class="st17" d="M348.1,367.6L348.1,367.6 M348.1,367.6l-13.2,16.9l-7.7-10.3l7.6,5.4L348.1,367.6 M348.1,366.1
				C348.1,366.1,348.1,366.1,348.1,366.1c-0.4,0-0.7,0.2-1,0.4l-12.4,11.2l-6.6-4.7c-0.3-0.2-0.6-0.3-0.9-0.3
				c-0.4,0-0.8,0.2-1.1,0.5c-0.5,0.5-0.6,1.4-0.1,1.9l7.7,10.3c0.3,0.4,0.7,0.6,1.2,0.6c0,0,0,0,0,0c0.5,0,0.9-0.2,1.2-0.6
				l13.2-16.8c0.2-0.3,0.4-0.6,0.4-1C349.6,366.8,348.9,366.1,348.1,366.1L348.1,366.1C348.1,366.1,348.1,366.1,348.1,366.1
				L348.1,366.1z"/>
		</g>
		<g>
			<path class="st17" d="M334.9,413c-0.2,0-0.5-0.1-0.6-0.3l-7.7-10.3c-0.2-0.3-0.2-0.7,0.1-1c0.1-0.1,0.3-0.2,0.5-0.2
				c0.2,0,0.3,0,0.4,0.1l7.1,5l12.9-11.6c0.1-0.1,0.3-0.2,0.5-0.2c0.2,0,0.4,0.1,0.5,0.2c0.3,0.3,0.3,0.7,0.1,1l-13.2,16.9
				C335.3,412.9,335.1,413,334.9,413C334.9,413,334.9,413,334.9,413z"/>
			<path class="st17" d="M348.1,395.4L348.1,395.4 M348.1,395.4l-13.2,16.9l-7.7-10.3l7.6,5.4L348.1,395.4 M348.1,393.9L348.1,393.9
				C348.1,393.9,348.1,393.9,348.1,393.9C348.1,393.9,348.1,393.9,348.1,393.9C348.1,393.9,348.1,393.9,348.1,393.9
				C348.1,393.9,348.1,393.9,348.1,393.9C348.1,393.9,348.1,393.9,348.1,393.9C348.1,393.9,348.1,393.9,348.1,393.9
				C348.1,393.9,348.1,393.9,348.1,393.9C348.1,393.9,348.1,393.9,348.1,393.9C348.1,393.9,348.1,393.9,348.1,393.9
				C348.1,393.9,348.1,393.9,348.1,393.9C348.1,393.9,348.1,393.9,348.1,393.9C348.1,393.9,348.1,393.9,348.1,393.9
				c-0.4,0-0.7,0.1-1,0.4l-12.4,11.2l-6.6-4.7c-0.3-0.2-0.6-0.3-0.9-0.3c-0.4,0-0.8,0.2-1.1,0.5c-0.5,0.5-0.6,1.4-0.1,1.9l7.7,10.3
				c0.3,0.4,0.7,0.6,1.2,0.6c0,0,0,0,0,0c0.5,0,0.9-0.2,1.2-0.6l13.2-16.8c0.2-0.3,0.4-0.6,0.4-1
				C349.6,394.5,348.9,393.9,348.1,393.9L348.1,393.9z"/>
		</g>
		<path class="st23" d="M291.1,482.7V551h33.2C322.9,551,293.1,517,291.1,482.7z"/>
		<path class="st10" d="M328.6,518.7c-9.9-2.9-17.1-7-22.5-11.6c-12.6-10.7-14.7-23.7-15-29.2v4.5c2,34.3,31.8,68.6,33.2,68.6
			c-1.5-1.8-2.2-4.3-2.3-6.9C321.9,537.8,325.3,529.2,328.6,518.7z"/>
	</g>
	<path class="st8" d="M310.8,519.5l-22.5,10.7l0,0l0,0L168.2,650.9l0,0l-7.8,7.8l0.1,0.1l-2.9,2.9c-4.5,4.5-4.5,11.9,0,16.4
		c4.5,4.5,11.9,4.5,16.4,0l2.9-2.9l0.1,0.1l7.9-7.9l0,0l0,0l120.2-120.7l0,0l10.8-22.3l0.1,0.1l4.8-9.9l-10,4.8L310.8,519.5z"/>
	<g class="st1">
		<path class="st9" d="M170.1,670.8c-4.5,4.5-11.9,4.5-16.4,0l0,0c-4.5-4.5-4.5-11.9,0-16.4l16.1-16.1c4.5-4.5,11.9-4.5,16.4,0l0,0
			c4.5,4.5,4.5,11.9,0,16.4L170.1,670.8z"/>
		
			<rect x="157.1" y="650.2" transform="matrix(0.7076 0.7066 -0.7066 0.7076 512.706 72.4797)" class="st24" width="23.4" height="11.1"/>
		<polygon class="st25" points="284.6,522.9 301.1,539.4 316.5,507.6 		"/>
		<polygon class="st26" points="316.8,507.2 306.8,511.9 312,517.1 		"/>
		
			<rect x="221.1" y="506.3" transform="matrix(0.7085 0.7057 -0.7057 0.7085 485.2529 8.1321)" class="st27" width="23.4" height="170.3"/>
		
			<rect x="227.7" y="506.3" transform="matrix(0.7085 0.7057 -0.7057 0.7085 485.2477 8.1299)" class="st28" width="10.3" height="170.3"/>
		<path class="st29" d="M321.8,534.6C321.8,534.6,321.8,534.6,321.8,534.6"/>
	</g>
</g>
<g id="DESIGNED_BY_FREEPIK" class="st1">
	<g class="st4">
		<g>
			<path class="st19" d="M288.5,777.3V777c-0.3,0.4-0.7,0.7-1,1c-0.3,0.3-0.7,0.4-1.1,0.6c-0.4,0.1-0.8,0.2-1.3,0.2
				c-0.6,0-1.2-0.1-1.7-0.4c-0.5-0.3-1-0.6-1.4-1.1c-0.4-0.5-0.7-1.1-0.9-1.7c-0.2-0.7-0.3-1.4-0.3-2.1c0-1.6,0.4-2.9,1.2-3.8
				c0.8-0.9,1.8-1.4,3.1-1.4c0.7,0,1.4,0.1,1.9,0.4c0.5,0.3,1,0.7,1.5,1.2V766c0-0.5,0.1-0.9,0.3-1.2c0.2-0.3,0.5-0.4,0.9-0.4
				c0.4,0,0.7,0.1,0.9,0.4c0.2,0.3,0.3,0.6,0.3,1.1v11.4c0,0.5-0.1,0.9-0.3,1.1c-0.2,0.2-0.5,0.4-0.9,0.4c-0.4,0-0.6-0.1-0.9-0.4
				C288.6,778.1,288.5,777.8,288.5,777.3z M283.4,773.5c0,0.7,0.1,1.3,0.3,1.8c0.2,0.5,0.5,0.9,0.9,1.1c0.4,0.3,0.8,0.4,1.2,0.4
				c0.5,0,0.9-0.1,1.2-0.4c0.4-0.2,0.7-0.6,0.9-1.1c0.2-0.5,0.3-1.1,0.3-1.8c0-0.7-0.1-1.3-0.3-1.8c-0.2-0.5-0.5-0.9-0.9-1.1
				c-0.4-0.3-0.8-0.4-1.3-0.4c-0.5,0-0.9,0.1-1.3,0.4c-0.4,0.3-0.7,0.7-0.9,1.2C283.5,772.2,283.4,772.8,283.4,773.5z"/>
			<path class="st19" d="M299.9,774.1h-5.1c0,0.6,0.1,1.1,0.4,1.6c0.2,0.5,0.5,0.8,0.9,1c0.4,0.2,0.8,0.3,1.3,0.3
				c0.3,0,0.6,0,0.8-0.1c0.3-0.1,0.5-0.2,0.7-0.3c0.2-0.2,0.5-0.3,0.7-0.5c0.2-0.2,0.5-0.4,0.8-0.7c0.1-0.1,0.3-0.2,0.6-0.2
				c0.3,0,0.5,0.1,0.6,0.2c0.2,0.1,0.2,0.3,0.2,0.6c0,0.2-0.1,0.5-0.3,0.8c-0.2,0.3-0.5,0.6-0.8,0.9c-0.4,0.3-0.8,0.5-1.4,0.7
				c-0.6,0.2-1.2,0.3-1.9,0.3c-1.7,0-3-0.5-3.9-1.4c-0.9-0.9-1.4-2.2-1.4-3.9c0-0.8,0.1-1.5,0.3-2.1c0.2-0.7,0.6-1.2,1-1.7
				c0.4-0.5,1-0.8,1.6-1.1c0.6-0.3,1.3-0.4,2.1-0.4c1,0,1.9,0.2,2.6,0.6c0.7,0.4,1.3,1,1.6,1.7c0.4,0.7,0.5,1.4,0.5,2.1
				c0,0.7-0.2,1.1-0.6,1.3C301.1,774,300.6,774.1,299.9,774.1z M294.9,772.7h4.7c-0.1-0.9-0.3-1.6-0.7-2c-0.4-0.4-1-0.7-1.6-0.7
				c-0.6,0-1.2,0.2-1.6,0.7C295.2,771.1,294.9,771.8,294.9,772.7z"/>
			<path class="st19" d="M311.7,775.4c0,0.7-0.2,1.3-0.5,1.8c-0.3,0.5-0.9,0.9-1.5,1.2c-0.7,0.3-1.5,0.4-2.5,0.4
				c-0.9,0-1.7-0.1-2.4-0.4c-0.7-0.3-1.2-0.6-1.5-1.1c-0.3-0.4-0.5-0.9-0.5-1.3c0-0.3,0.1-0.5,0.3-0.7c0.2-0.2,0.5-0.3,0.8-0.3
				c0.3,0,0.5,0.1,0.6,0.2c0.1,0.1,0.3,0.3,0.4,0.6c0.3,0.5,0.6,0.8,1,1c0.4,0.2,0.9,0.3,1.5,0.3c0.5,0,0.9-0.1,1.3-0.3
				c0.3-0.2,0.5-0.5,0.5-0.8c0-0.5-0.2-0.8-0.5-1c-0.3-0.2-0.9-0.4-1.7-0.6c-0.9-0.2-1.6-0.5-2.2-0.7c-0.6-0.2-1-0.6-1.3-1
				c-0.3-0.4-0.5-0.9-0.5-1.5c0-0.5,0.2-1,0.5-1.5c0.3-0.5,0.8-0.8,1.4-1.1c0.6-0.3,1.3-0.4,2.2-0.4c0.7,0,1.3,0.1,1.8,0.2
				c0.5,0.1,1,0.3,1.3,0.6c0.4,0.2,0.6,0.5,0.8,0.8c0.2,0.3,0.3,0.6,0.3,0.8c0,0.3-0.1,0.5-0.3,0.7c-0.2,0.2-0.5,0.3-0.9,0.3
				c-0.3,0-0.5-0.1-0.7-0.2c-0.2-0.2-0.4-0.4-0.6-0.7c-0.2-0.3-0.4-0.5-0.7-0.6c-0.3-0.2-0.6-0.2-1.1-0.2c-0.5,0-0.9,0.1-1.2,0.3
				c-0.3,0.2-0.5,0.4-0.5,0.7c0,0.3,0.1,0.5,0.3,0.7c0.2,0.2,0.5,0.3,0.9,0.4c0.4,0.1,0.9,0.3,1.6,0.4c0.8,0.2,1.5,0.4,2,0.7
				c0.5,0.3,0.9,0.6,1.2,1C311.6,774.5,311.7,774.9,311.7,775.4z"/>
			<path class="st19" d="M314.4,767c-0.4,0-0.7-0.1-0.9-0.3c-0.3-0.2-0.4-0.5-0.4-0.9c0-0.4,0.1-0.7,0.4-0.9
				c0.3-0.2,0.6-0.4,0.9-0.4c0.3,0,0.6,0.1,0.9,0.3c0.3,0.2,0.4,0.5,0.4,0.9c0,0.4-0.1,0.7-0.4,0.9S314.7,767,314.4,767z
				 M315.7,769.7v7.5c0,0.5-0.1,0.9-0.4,1.2c-0.2,0.3-0.6,0.4-0.9,0.4c-0.4,0-0.7-0.1-0.9-0.4c-0.2-0.3-0.4-0.7-0.4-1.2v-7.4
				c0-0.5,0.1-0.9,0.4-1.2c0.2-0.3,0.5-0.4,0.9-0.4c0.4,0,0.7,0.1,0.9,0.4C315.5,768.9,315.7,769.2,315.7,769.7z"/>
			<path class="st19" d="M327,770.1v7.5c0,0.9-0.1,1.6-0.3,2.2c-0.2,0.6-0.5,1.1-0.9,1.5c-0.4,0.4-0.9,0.7-1.6,0.9
				c-0.7,0.2-1.5,0.3-2.4,0.3c-0.9,0-1.7-0.1-2.4-0.4c-0.7-0.3-1.2-0.6-1.6-1c-0.4-0.4-0.6-0.8-0.6-1.2c0-0.3,0.1-0.6,0.3-0.8
				c0.2-0.2,0.5-0.3,0.8-0.3c0.4,0,0.7,0.2,1,0.5c0.1,0.2,0.3,0.3,0.4,0.5c0.1,0.2,0.3,0.3,0.5,0.4c0.2,0.1,0.4,0.2,0.7,0.3
				c0.3,0.1,0.5,0.1,0.9,0.1c0.7,0,1.2-0.1,1.6-0.3c0.4-0.2,0.6-0.4,0.8-0.8c0.1-0.3,0.2-0.7,0.3-1.1c0-0.4,0-1,0.1-1.8
				c-0.4,0.6-0.9,1-1.4,1.3c-0.5,0.3-1.1,0.4-1.9,0.4c-0.9,0-1.6-0.2-2.3-0.7c-0.6-0.4-1.1-1.1-1.5-1.9c-0.3-0.8-0.5-1.7-0.5-2.8
				c0-0.8,0.1-1.5,0.3-2.1c0.2-0.6,0.5-1.2,0.9-1.6c0.4-0.4,0.8-0.8,1.4-1c0.5-0.2,1.1-0.3,1.7-0.3c0.7,0,1.4,0.1,1.9,0.4
				c0.5,0.3,1,0.7,1.5,1.3v-0.4c0-0.4,0.1-0.8,0.3-1c0.2-0.2,0.5-0.4,0.9-0.4c0.5,0,0.8,0.2,1,0.5C326.9,769,327,769.5,327,770.1z
				 M319.5,773.4c0,1.1,0.2,1.8,0.7,2.4c0.5,0.5,1.1,0.8,1.8,0.8c0.4,0,0.8-0.1,1.2-0.3c0.4-0.2,0.7-0.6,0.9-1
				c0.2-0.5,0.4-1,0.4-1.7c0-1.1-0.2-1.9-0.7-2.5c-0.5-0.6-1.1-0.9-1.8-0.9c-0.7,0-1.3,0.3-1.8,0.8
				C319.7,771.6,319.5,772.4,319.5,773.4z"/>
			<path class="st19" d="M331.2,769.7v0.3c0.5-0.6,1-1,1.5-1.3c0.5-0.3,1.2-0.4,1.9-0.4c0.7,0,1.3,0.2,1.8,0.4
				c0.5,0.3,0.9,0.7,1.2,1.3c0.2,0.3,0.3,0.7,0.3,1c0.1,0.4,0.1,0.8,0.1,1.4v4.8c0,0.5-0.1,0.9-0.4,1.2c-0.2,0.3-0.5,0.4-0.9,0.4
				c-0.4,0-0.7-0.1-0.9-0.4c-0.2-0.3-0.4-0.7-0.4-1.2v-4.3c0-0.9-0.1-1.5-0.4-2c-0.2-0.5-0.7-0.7-1.4-0.7c-0.5,0-0.9,0.1-1.3,0.4
				c-0.4,0.3-0.7,0.7-0.8,1.1c-0.1,0.4-0.2,1.1-0.2,2.2v3.2c0,0.5-0.1,0.9-0.4,1.2c-0.2,0.3-0.6,0.4-0.9,0.4c-0.4,0-0.7-0.1-0.9-0.4
				c-0.2-0.3-0.4-0.7-0.4-1.2v-7.5c0-0.5,0.1-0.9,0.3-1.1c0.2-0.2,0.5-0.4,0.9-0.4c0.2,0,0.4,0.1,0.6,0.2c0.2,0.1,0.3,0.3,0.4,0.5
				C331.1,769.1,331.2,769.3,331.2,769.7z"/>
			<path class="st19" d="M346.9,774.1h-5.1c0,0.6,0.1,1.1,0.4,1.6c0.2,0.5,0.5,0.8,0.9,1c0.4,0.2,0.8,0.3,1.3,0.3
				c0.3,0,0.6,0,0.9-0.1c0.3-0.1,0.5-0.2,0.7-0.3c0.2-0.2,0.5-0.3,0.7-0.5c0.2-0.2,0.5-0.4,0.8-0.7c0.1-0.1,0.3-0.2,0.6-0.2
				c0.3,0,0.5,0.1,0.6,0.2c0.2,0.1,0.2,0.3,0.2,0.6c0,0.2-0.1,0.5-0.3,0.8c-0.2,0.3-0.5,0.6-0.8,0.9c-0.4,0.3-0.8,0.5-1.4,0.7
				c-0.6,0.2-1.2,0.3-1.9,0.3c-1.7,0-3-0.5-3.9-1.4c-0.9-0.9-1.4-2.2-1.4-3.9c0-0.8,0.1-1.5,0.3-2.1c0.2-0.7,0.6-1.2,1-1.7
				c0.4-0.5,1-0.8,1.6-1.1c0.6-0.3,1.3-0.4,2.1-0.4c1,0,1.9,0.2,2.6,0.6c0.7,0.4,1.3,1,1.6,1.7c0.4,0.7,0.5,1.4,0.5,2.1
				c0,0.7-0.2,1.1-0.6,1.3C348.1,774,347.6,774.1,346.9,774.1z M341.9,772.7h4.7c-0.1-0.9-0.3-1.6-0.7-2c-0.4-0.4-1-0.7-1.6-0.7
				c-0.6,0-1.2,0.2-1.6,0.7C342.2,771.1,341.9,771.8,341.9,772.7z"/>
			<path class="st19" d="M357.5,777.3V777c-0.3,0.4-0.7,0.7-1,1c-0.3,0.3-0.7,0.4-1.1,0.6c-0.4,0.1-0.8,0.2-1.3,0.2
				c-0.6,0-1.2-0.1-1.7-0.4c-0.5-0.3-1-0.6-1.4-1.1c-0.4-0.5-0.7-1.1-0.9-1.7c-0.2-0.7-0.3-1.4-0.3-2.1c0-1.6,0.4-2.9,1.2-3.8
				c0.8-0.9,1.8-1.4,3.1-1.4c0.7,0,1.4,0.1,1.9,0.4c0.5,0.3,1,0.7,1.5,1.2V766c0-0.5,0.1-0.9,0.3-1.2c0.2-0.3,0.5-0.4,0.9-0.4
				c0.4,0,0.7,0.1,0.9,0.4c0.2,0.3,0.3,0.6,0.3,1.1v11.4c0,0.5-0.1,0.9-0.3,1.1c-0.2,0.2-0.5,0.4-0.9,0.4c-0.4,0-0.6-0.1-0.9-0.4
				C357.6,778.1,357.5,777.8,357.5,777.3z M352.4,773.5c0,0.7,0.1,1.3,0.3,1.8c0.2,0.5,0.5,0.9,0.9,1.1c0.4,0.3,0.8,0.4,1.2,0.4
				c0.5,0,0.9-0.1,1.2-0.4c0.4-0.2,0.7-0.6,0.9-1.1c0.2-0.5,0.3-1.1,0.3-1.8c0-0.7-0.1-1.3-0.3-1.8c-0.2-0.5-0.5-0.9-0.9-1.1
				c-0.4-0.3-0.8-0.4-1.3-0.4c-0.5,0-0.9,0.1-1.3,0.4c-0.4,0.3-0.7,0.7-0.9,1.2C352.5,772.2,352.4,772.8,352.4,773.5z"/>
			<path class="st19" d="M368.1,765.9v4c0.5-0.5,1-0.9,1.5-1.2c0.5-0.3,1.1-0.4,1.9-0.4c0.9,0,1.6,0.2,2.3,0.6
				c0.6,0.4,1.2,1,1.5,1.8c0.4,0.8,0.5,1.7,0.5,2.8c0,0.8-0.1,1.5-0.3,2.2c-0.2,0.7-0.5,1.2-0.9,1.7c-0.4,0.5-0.8,0.9-1.4,1.1
				c-0.5,0.3-1.1,0.4-1.8,0.4c-0.4,0-0.8,0-1.1-0.1c-0.4-0.1-0.7-0.2-0.9-0.4c-0.2-0.2-0.5-0.3-0.6-0.5c-0.2-0.2-0.4-0.4-0.7-0.7
				v0.3c0,0.5-0.1,0.9-0.4,1.1c-0.2,0.3-0.5,0.4-0.9,0.4c-0.4,0-0.7-0.1-0.9-0.4c-0.2-0.3-0.3-0.6-0.3-1.1V766
				c0-0.5,0.1-0.9,0.3-1.2c0.2-0.3,0.5-0.4,0.9-0.4c0.4,0,0.7,0.1,0.9,0.4C368,765,368.1,765.4,368.1,765.9z M368.2,773.6
				c0,1,0.2,1.8,0.7,2.4c0.5,0.6,1.1,0.8,1.9,0.8c0.7,0,1.2-0.3,1.7-0.9c0.5-0.6,0.7-1.4,0.7-2.4c0-0.7-0.1-1.3-0.3-1.8
				c-0.2-0.5-0.5-0.9-0.8-1.1c-0.4-0.3-0.8-0.4-1.3-0.4c-0.5,0-0.9,0.1-1.3,0.4c-0.4,0.3-0.7,0.7-0.9,1.2
				C368.3,772.2,368.2,772.9,368.2,773.6z"/>
			<path class="st19" d="M379.1,779.1l0.2-0.6l-3.2-8c-0.2-0.5-0.3-0.8-0.3-1c0-0.2,0.1-0.4,0.2-0.6c0.1-0.2,0.3-0.3,0.5-0.5
				c0.2-0.1,0.4-0.2,0.6-0.2c0.4,0,0.7,0.1,0.8,0.4c0.2,0.2,0.4,0.6,0.5,1l2.2,6.4l2.1-5.9c0.2-0.5,0.3-0.9,0.4-1.1
				c0.1-0.3,0.3-0.5,0.4-0.5c0.1-0.1,0.4-0.1,0.6-0.1c0.2,0,0.4,0.1,0.6,0.2c0.2,0.1,0.3,0.2,0.4,0.4c0.1,0.2,0.1,0.4,0.1,0.6
				c0,0.1-0.1,0.3-0.1,0.5c-0.1,0.2-0.1,0.4-0.2,0.7l-3.4,8.9c-0.3,0.8-0.6,1.4-0.9,1.8c-0.3,0.4-0.6,0.8-1.1,1
				c-0.5,0.2-1.1,0.4-1.9,0.4c-0.8,0-1.3-0.1-1.7-0.2c-0.4-0.2-0.6-0.5-0.6-0.9c0-0.3,0.1-0.5,0.3-0.7c0.2-0.2,0.4-0.2,0.8-0.2
				c0.1,0,0.3,0,0.4,0.1c0.2,0,0.3,0.1,0.4,0.1c0.3,0,0.5,0,0.7-0.1c0.2-0.1,0.3-0.2,0.5-0.5C378.8,779.8,379,779.5,379.1,779.1z"/>
		</g>
		<g>
			<g>
				<path class="st19" d="M416.7,768.5h0.6v-0.8c0-0.8,0.1-1.5,0.3-1.9c0.2-0.5,0.6-0.8,1-1c0.5-0.2,1.2-0.3,2-0.3
					c1.5,0,2.3,0.4,2.3,1.1c0,0.2-0.1,0.4-0.2,0.6c-0.2,0.2-0.3,0.3-0.6,0.3c-0.1,0-0.3,0-0.5-0.1c-0.2,0-0.5-0.1-0.6-0.1
					c-0.5,0-0.8,0.1-0.9,0.4c-0.1,0.3-0.2,0.7-0.2,1.2v0.6h0.6c1,0,1.5,0.3,1.5,0.9c0,0.4-0.1,0.7-0.4,0.8c-0.3,0.1-0.6,0.2-1.1,0.2
					h-0.6v6.9c0,0.5-0.1,0.9-0.4,1.2c-0.2,0.3-0.6,0.4-0.9,0.4c-0.4,0-0.7-0.1-0.9-0.4c-0.2-0.3-0.4-0.7-0.4-1.2v-6.9h-0.7
					c-0.4,0-0.7-0.1-0.9-0.3c-0.2-0.2-0.3-0.4-0.3-0.7C415.4,768.8,415.8,768.5,416.7,768.5"/>
				<path class="st19" d="M425.2,775v2.2c0,0.5-0.1,0.9-0.4,1.2c-0.2,0.3-0.6,0.4-0.9,0.4c-0.4,0-0.7-0.1-0.9-0.4
					c-0.2-0.3-0.4-0.7-0.4-1.2V770c0-1.2,0.4-1.7,1.3-1.7c0.4,0,0.7,0.1,0.9,0.4s0.3,0.7,0.3,1.2c0.3-0.5,0.6-0.9,0.9-1.2
					c0.3-0.3,0.8-0.4,1.3-0.4c0.5,0,1.1,0.1,1.6,0.4c0.5,0.3,0.8,0.6,0.8,1.1c0,0.3-0.1,0.6-0.3,0.8c-0.2,0.2-0.5,0.3-0.7,0.3
					c-0.1,0-0.3-0.1-0.7-0.2c-0.4-0.1-0.7-0.2-1-0.2c-0.4,0-0.7,0.1-0.9,0.3c-0.2,0.2-0.4,0.5-0.6,0.9c-0.1,0.4-0.2,0.9-0.3,1.4
					C425.2,773.6,425.2,774.2,425.2,775"/>
				<path class="st19" d="M437.1,774.1H432c0,0.6,0.1,1.1,0.4,1.6c0.2,0.4,0.5,0.8,0.9,1c0.4,0.2,0.8,0.3,1.3,0.3
					c0.3,0,0.6,0,0.8-0.1c0.3-0.1,0.5-0.2,0.7-0.3c0.2-0.2,0.5-0.3,0.7-0.5c0.2-0.2,0.5-0.4,0.8-0.7c0.1-0.1,0.3-0.2,0.6-0.2
					c0.3,0,0.5,0.1,0.6,0.2c0.2,0.1,0.2,0.4,0.2,0.6c0,0.2-0.1,0.5-0.3,0.8c-0.2,0.3-0.5,0.6-0.8,0.9c-0.4,0.3-0.8,0.5-1.4,0.7
					c-0.6,0.2-1.2,0.3-1.9,0.3c-1.7,0-3-0.5-3.9-1.4c-0.9-1-1.4-2.2-1.4-3.9c0-0.8,0.1-1.5,0.3-2.1c0.2-0.7,0.6-1.2,1-1.7
					c0.4-0.5,1-0.8,1.6-1.1c0.6-0.3,1.3-0.4,2.1-0.4c1,0,1.9,0.2,2.6,0.6c0.7,0.4,1.3,1,1.6,1.7c0.4,0.7,0.5,1.4,0.5,2.1
					c0,0.6-0.2,1.1-0.6,1.3C438.3,774,437.8,774.1,437.1,774.1 M432,772.7h4.7c-0.1-0.9-0.3-1.5-0.7-2c-0.4-0.4-1-0.7-1.6-0.7
					c-0.6,0-1.2,0.2-1.6,0.7C432.4,771.1,432.1,771.8,432,772.7"/>
				<path class="st19" d="M447.9,774.1h-5.1c0,0.6,0.1,1.1,0.4,1.6c0.2,0.4,0.5,0.8,0.9,1c0.4,0.2,0.8,0.3,1.3,0.3
					c0.3,0,0.6,0,0.8-0.1c0.3-0.1,0.5-0.2,0.8-0.3c0.2-0.2,0.5-0.3,0.7-0.5c0.2-0.2,0.5-0.4,0.8-0.7c0.1-0.1,0.3-0.2,0.6-0.2
					c0.3,0,0.5,0.1,0.7,0.2c0.2,0.1,0.2,0.4,0.2,0.6c0,0.2-0.1,0.5-0.3,0.8c-0.2,0.3-0.5,0.6-0.8,0.9c-0.4,0.3-0.8,0.5-1.4,0.7
					c-0.6,0.2-1.2,0.3-1.9,0.3c-1.7,0-3-0.5-3.9-1.4c-0.9-1-1.4-2.2-1.4-3.9c0-0.8,0.1-1.5,0.3-2.1c0.2-0.7,0.6-1.2,1-1.7
					c0.4-0.5,1-0.8,1.6-1.1c0.6-0.3,1.4-0.4,2.1-0.4c1,0,1.9,0.2,2.6,0.6c0.7,0.4,1.3,1,1.6,1.7c0.4,0.7,0.5,1.4,0.5,2.1
					c0,0.6-0.2,1.1-0.6,1.3C449.1,774,448.6,774.1,447.9,774.1 M442.8,772.7h4.7c-0.1-0.9-0.3-1.5-0.7-2c-0.4-0.4-1-0.7-1.6-0.7
					c-0.6,0-1.2,0.2-1.6,0.7C443.2,771.1,442.9,771.8,442.8,772.7"/>
				<path class="st19" d="M453.6,769.7v0.3c0.5-0.6,1-1,1.5-1.3c0.5-0.3,1.1-0.4,1.8-0.4c0.8,0,1.5,0.2,2.2,0.6
					c0.7,0.4,1.2,1,1.6,1.8c0.4,0.8,0.6,1.7,0.6,2.8c0,0.8-0.1,1.5-0.3,2.2c-0.2,0.7-0.5,1.2-0.9,1.7c-0.4,0.5-0.9,0.8-1.4,1
					c-0.5,0.2-1.1,0.4-1.7,0.4c-0.7,0-1.4-0.1-1.9-0.4c-0.5-0.3-1-0.7-1.4-1.3v3.9c0,1.1-0.4,1.7-1.2,1.7c-0.5,0-0.8-0.1-1-0.4
					c-0.2-0.3-0.2-0.7-0.2-1.3v-11.2c0-0.5,0.1-0.9,0.3-1.1c0.2-0.2,0.5-0.4,0.9-0.4c0.4,0,0.7,0.1,0.9,0.4
					C453.5,768.8,453.6,769.2,453.6,769.7 M458.7,773.4c0-0.7-0.1-1.3-0.3-1.8c-0.2-0.5-0.5-0.9-0.9-1.1c-0.4-0.3-0.8-0.4-1.2-0.4
					c-0.7,0-1.3,0.3-1.8,0.8c-0.5,0.6-0.7,1.4-0.7,2.5c0,1,0.2,1.8,0.7,2.4c0.5,0.6,1.1,0.9,1.8,0.9c0.4,0,0.8-0.1,1.2-0.4
					c0.4-0.3,0.7-0.6,0.9-1.1C458.6,774.8,458.7,774.2,458.7,773.4"/>
				<path class="st19" d="M463.9,767c-0.4,0-0.7-0.1-0.9-0.3c-0.3-0.2-0.4-0.5-0.4-0.9c0-0.4,0.1-0.7,0.4-0.9
					c0.3-0.2,0.6-0.4,0.9-0.4c0.3,0,0.6,0.1,0.9,0.3c0.3,0.2,0.4,0.5,0.4,0.9c0,0.4-0.1,0.7-0.4,0.9
					C464.5,766.9,464.2,767,463.9,767 M465.2,769.7v7.5c0,0.5-0.1,0.9-0.4,1.2c-0.3,0.3-0.6,0.4-0.9,0.4c-0.4,0-0.7-0.1-0.9-0.4
					c-0.2-0.3-0.4-0.7-0.4-1.2v-7.4c0-0.5,0.1-0.9,0.4-1.2c0.2-0.3,0.5-0.4,0.9-0.4c0.4,0,0.7,0.1,0.9,0.4
					C465,768.9,465.2,769.2,465.2,769.7"/>
				<path class="st19" d="M473.5,777.6l-2.3-3.8l-1.4,1.3v2.1c0,0.5-0.1,0.9-0.4,1.1c-0.3,0.3-0.6,0.4-0.9,0.4
					c-0.4,0-0.7-0.1-0.9-0.4c-0.2-0.3-0.3-0.7-0.3-1.2v-11.1c0-0.6,0.1-1,0.3-1.3c0.2-0.3,0.5-0.5,1-0.5c0.4,0,0.7,0.1,1,0.4
					c0.2,0.3,0.4,0.7,0.4,1.2v6.3l2.9-3.1c0.4-0.4,0.6-0.6,0.8-0.8c0.2-0.1,0.4-0.2,0.7-0.2c0.3,0,0.6,0.1,0.8,0.3
					c0.2,0.2,0.3,0.5,0.3,0.8c0,0.4-0.4,0.9-1.1,1.5l-1.4,1.3l2.7,4.2c0.2,0.3,0.3,0.5,0.4,0.7c0.1,0.2,0.1,0.3,0.1,0.5
					c0,0.4-0.1,0.7-0.3,1c-0.2,0.2-0.5,0.4-0.9,0.4c-0.3,0-0.6-0.1-0.7-0.3C474.1,778.3,473.8,778,473.5,777.6"/>
				<path class="st19" d="M479.2,778.8c-0.4,0-0.7-0.1-1-0.4c-0.3-0.2-0.4-0.6-0.4-1.1c0-0.4,0.1-0.7,0.4-1c0.3-0.3,0.6-0.4,1-0.4
					c0.4,0,0.7,0.1,1,0.4c0.3,0.3,0.4,0.6,0.4,1c0,0.5-0.1,0.8-0.4,1.1C479.9,778.6,479.5,778.8,479.2,778.8"/>
				<path class="st19" d="M492.1,775.6c0,0.3-0.1,0.7-0.3,1c-0.2,0.4-0.5,0.7-0.9,1c-0.4,0.3-0.9,0.6-1.5,0.8
					c-0.6,0.2-1.3,0.3-2,0.3c-1.6,0-2.9-0.5-3.8-1.4c-0.9-0.9-1.3-2.2-1.3-3.8c0-1.1,0.2-2,0.6-2.8c0.4-0.8,1-1.4,1.8-1.9
					c0.8-0.4,1.7-0.7,2.8-0.7c0.7,0,1.3,0.1,1.9,0.3c0.6,0.2,1,0.5,1.4,0.8c0.4,0.3,0.7,0.6,0.9,1c0.2,0.4,0.3,0.7,0.3,1
					c0,0.3-0.1,0.6-0.3,0.8c-0.2,0.2-0.5,0.3-0.8,0.3c-0.2,0-0.4-0.1-0.5-0.2c-0.1-0.1-0.3-0.3-0.5-0.5c-0.3-0.5-0.6-0.8-1-1.1
					c-0.3-0.2-0.8-0.4-1.3-0.4c-0.8,0-1.4,0.3-1.9,0.9c-0.5,0.6-0.7,1.4-0.7,2.5c0,0.5,0.1,0.9,0.2,1.3c0.1,0.4,0.3,0.8,0.5,1
					c0.2,0.3,0.5,0.5,0.8,0.7c0.3,0.2,0.7,0.2,1.1,0.2c0.5,0,1-0.1,1.3-0.4c0.4-0.2,0.7-0.6,1-1.1c0.2-0.3,0.3-0.5,0.5-0.7
					c0.2-0.2,0.4-0.2,0.7-0.2c0.3,0,0.6,0.1,0.8,0.4C492,775,492.1,775.3,492.1,775.6"/>
				<path class="st19" d="M503.2,773.5c0,0.8-0.1,1.5-0.4,2.1c-0.2,0.7-0.6,1.2-1,1.7c-0.5,0.5-1,0.8-1.6,1.1
					c-0.6,0.2-1.3,0.4-2.1,0.4c-0.8,0-1.5-0.1-2.1-0.4c-0.6-0.2-1.2-0.6-1.6-1.1c-0.5-0.5-0.8-1-1.1-1.7c-0.2-0.6-0.3-1.4-0.3-2.1
					c0-0.8,0.1-1.5,0.4-2.2c0.2-0.7,0.6-1.2,1-1.7c0.5-0.5,1-0.8,1.6-1.1c0.6-0.2,1.3-0.4,2.1-0.4c0.8,0,1.5,0.1,2.1,0.4
					c0.6,0.3,1.2,0.6,1.6,1.1c0.5,0.5,0.8,1,1,1.7C503.1,772,503.2,772.7,503.2,773.5 M500.6,773.5c0-1.1-0.2-1.9-0.7-2.5
					c-0.5-0.6-1.1-0.9-1.9-0.9c-0.5,0-1,0.1-1.3,0.4c-0.4,0.3-0.7,0.6-0.9,1.2c-0.2,0.5-0.3,1.1-0.3,1.8c0,0.7,0.1,1.3,0.3,1.8
					c0.2,0.5,0.5,0.9,0.9,1.2c0.4,0.3,0.8,0.4,1.4,0.4c0.8,0,1.4-0.3,1.9-0.9C500.4,775.4,500.6,774.5,500.6,773.5"/>
				<path class="st19" d="M513.1,773.7v3.4c0,0.5-0.1,1-0.4,1.2c-0.3,0.3-0.6,0.4-1,0.4c-0.4,0-0.7-0.1-1-0.4
					c-0.2-0.3-0.4-0.7-0.4-1.2V773c0-0.7,0-1.2-0.1-1.5c0-0.4-0.2-0.7-0.4-0.9c-0.2-0.2-0.5-0.4-0.9-0.4c-0.9,0-1.4,0.3-1.7,0.9
					c-0.3,0.6-0.4,1.4-0.4,2.5v3.5c0,0.5-0.1,0.9-0.4,1.2c-0.3,0.3-0.6,0.4-1,0.4c-0.4,0-0.7-0.1-1-0.4c-0.3-0.3-0.4-0.7-0.4-1.2
					v-7.4c0-0.5,0.1-0.9,0.3-1.1c0.2-0.3,0.5-0.4,0.9-0.4c0.4,0,0.7,0.1,0.9,0.4c0.2,0.2,0.4,0.6,0.4,1v0.2c0.5-0.5,0.9-0.9,1.4-1.2
					c0.5-0.3,1.1-0.4,1.7-0.4c0.7,0,1.2,0.1,1.7,0.4c0.5,0.3,0.9,0.7,1.2,1.2c0.4-0.5,0.9-0.9,1.4-1.2c0.5-0.3,1.1-0.4,1.7-0.4
					c0.7,0,1.3,0.1,1.8,0.4c0.5,0.3,0.9,0.7,1.1,1.2c0.2,0.5,0.3,1.2,0.3,2.2v5.1c0,0.5-0.1,1-0.4,1.2c-0.2,0.3-0.6,0.4-1,0.4
					c-0.4,0-0.7-0.1-1-0.4c-0.3-0.3-0.4-0.7-0.4-1.2v-4.4c0-0.6,0-1-0.1-1.3c0-0.3-0.2-0.6-0.4-0.8c-0.2-0.2-0.5-0.3-1-0.3
					c-0.3,0-0.7,0.1-1,0.3c-0.3,0.2-0.5,0.5-0.7,0.8C513.2,771.8,513.1,772.6,513.1,773.7"/>
			</g>
			<g>
				<path class="st19" d="M392.4,772.9C392.4,772.9,392.4,772.9,392.4,772.9C392.4,772.9,392.4,772.9,392.4,772.9z"/>
				<path class="st19" d="M392.6,773.7C392.6,773.7,392.6,773.7,392.6,773.7c0-0.2-0.1-0.5-0.1-0.7
					C392.5,773.2,392.5,773.5,392.6,773.7z"/>
				<path class="st19" d="M393.4,776.1C393.4,776.1,393.4,776.1,393.4,776.1C393.4,776.1,393.4,776.1,393.4,776.1z"/>
				<path class="st19" d="M393.3,775.9c0,0,0-0.1-0.1-0.1C393.3,775.9,393.3,775.9,393.3,775.9z"/>
				<path class="st19" d="M392.8,774.6c0.1,0.4,0.3,0.8,0.5,1.2C393.1,775.4,392.9,775,392.8,774.6
					C392.8,774.6,392.8,774.6,392.8,774.6z"/>
				<path class="st19" d="M402.5,762.9c0.5,0,0.9,0,1.3,0.1l0.1-0.8c0,0-1.2-0.4-2.7-0.2l-0.1-0.4c0.5-0.1,0.8-0.5,0.8-1
					c0-0.6-0.5-1.1-1.1-1.1s-1.1,0.5-1.1,1.1c0,0.5,0.4,0.9,0.8,1l0.1,0.5c-1.6,0.2-2.9,0.9-2.9,0.9l0.2,0.7c1-0.3,1.8-0.5,2.6-0.6
					C401.4,763,402,762.9,402.5,762.9z"/>
				<path class="st19" d="M393.4,766.8L393.4,766.8c0-0.1,0.1-0.1,0.1-0.2l-0.3-0.2l-0.5-0.4c0,0-0.8,0.7-1.4,2c0,0-0.1-0.1-0.1-0.1
					c-0.2-0.2-0.4-0.3-0.8-0.3c0,0,0,0,0,0c-0.2,0-0.3-0.1-0.4-0.1c0.1-0.1,0.1-0.3,0.1-0.4c0-0.4-0.3-0.7-0.7-0.7
					c-0.4,0-0.7,0.3-0.7,0.7c0,0.4,0.3,0.7,0.7,0.7c0.1,0,0.1,0,0.2,0c0.2,0.2,0.4,0.3,0.8,0.3c0.2,0,0.3,0,0.4,0.2
					c0.1,0.1,0.1,0.3,0.2,0.4c0,0,0,0,0,0c-0.4,1.2-0.3,2.7-0.3,2.7l1.1,0c0-0.5,0.1-1.5,0.4-2.2
					C392.7,767.7,393.4,766.8,393.4,766.8z"/>
				<path class="st19" d="M411.7,763.8c-0.4,0-0.7,0.3-0.7,0.7c0,0.1,0,0.1,0,0.2c-0.2,0.2-0.3,0.4-0.3,0.8c0,0.2,0,0.3-0.2,0.4
					c-0.1,0.1-0.2,0.1-0.3,0.1c-0.8-1.1-1.8-1.8-1.8-1.8l-0.8,0.8c0.6,0.5,1.2,1.2,1.7,2c0.4,0.6,0.8,1.3,1.1,2l1-0.5
					c0,0-0.5-1.2-1.1-2.2c0.1,0,0.2-0.1,0.3-0.2c0.2-0.2,0.3-0.4,0.3-0.8c0-0.2,0.1-0.3,0.1-0.4c0.1,0.1,0.3,0.1,0.4,0.1
					c0.4,0,0.7-0.3,0.7-0.7C412.3,764.1,412,763.8,411.7,763.8z"/>
				<path class="st19" d="M409,773c-1.4,0.7-3.7,1.6-6.8,2c-1.2,0.2-2.4,0.2-3.4,0.2c-1.4,0-2.6-0.1-3.6-0.2
					c-1.1-0.1-1.9-0.3-2.4-0.4c0.1,0.4,0.3,0.8,0.5,1.2c0,0,0,0,0,0c0,0,0,0.1,0.1,0.1c0,0,0,0.1,0.1,0.1c0,0,0,0,0,0
					c0.3,0.6,0.7,1.1,1.1,1.5c1.4,1.6,2.9,1.8,2.9,1.8l0,0l0,0c0,0,1.3,0.4,3.3,0.4c1.9,0,3.9-0.4,5.7-1.2c1.3-0.7,2.6-1.7,3.3-2.7
					c0.5-0.7,0.8-1.5,1.1-2.3c0.1-0.4,0.2-1.1,0.1-1.8C410.5,772.2,409.9,772.6,409,773z"/>
				<path class="st19" d="M393.9,767.1c0,0.1-0.7,0.9-1.1,2.3c-0.4,1-0.3,2.4-0.3,2.5v0c0,0.3,0,0.7,0.1,1c0,0,0,0,0,0
					c0,0,0,0.1,0,0.1c0,0.2,0.1,0.5,0.1,0.7c0.7,0.2,4.9,1.2,9.5,0.5c2.9-0.4,5.1-1.3,6.5-1.9c1.1-0.5,1.8-1,2.1-1.2
					c-0.3-1-1-2.6-1.7-3.6c-2-2.9-4.2-3.6-5.3-3.8c-0.4-0.1-0.8-0.1-1.2-0.1c-0.4,0-1,0-1.7,0.1c-0.7,0.1-1.6,0.3-2.5,0.6
					c-1.3,0.5-2.6,1.2-3.5,2l0,0C394.5,766.4,394.2,766.7,393.9,767.1z M406.1,766.5c1,0,1.7,0.8,1.7,1.7s-0.8,1.7-1.7,1.7
					c-1,0-1.7-0.8-1.7-1.7S405.2,766.5,406.1,766.5z M397.9,766.4c1.6,0,2.8,1.3,2.8,2.8c0,1.6-1.3,2.8-2.8,2.8
					c-1.6,0-2.8-1.3-2.8-2.8C395.1,767.6,396.3,766.4,397.9,766.4z"/>
			</g>
		</g>
	</g>
</g>
</svg>
