<?xml version="1.0" encoding="utf-8"?>
<!-- Generator: Adobe Illustrator 16.0.0, SVG Export Plug-In . SVG Version: 6.00 Build 0)  -->
<!DOCTYPE svg PUBLIC "-//W3C//DTD SVG 1.1//EN" "http://www.w3.org/Graphics/SVG/1.1/DTD/svg11.dtd">
<svg version="1.1" id="Layer_1" xmlns="http://www.w3.org/2000/svg" xmlns:xlink="http://www.w3.org/1999/xlink" x="0px" y="0px"
	 width="40px" height="40px" viewBox="0 0 40 40" enable-background="new 0 0 40 40" xml:space="preserve">
<g>
	<path display="none" fill-rule="evenodd" clip-rule="evenodd" fill="#FFFFFF" d="M19.898,40.03c-6.606,0-13.213,0-19.82,0
		c0-13.317,0-26.635,0-39.952c6.633,0,13.265,0,19.898,0c-0.513,0.2-0.657,0.587-0.625,1.112c0.035,0.569,0.001,1.141,0.013,1.712
		c0.009,0.477,0.272,0.745,0.707,0.749c0.442,0.004,0.729-0.288,0.736-0.768c0.009-0.545-0.027-1.092,0.012-1.634
		c0.038-0.536-0.104-0.938-0.609-1.171c6.606,0,13.214,0,19.82,0c0,13.317,0,26.635,0,39.952c-6.555,0-13.109,0-19.664,0
		c0.098-0.03,0.193-0.079,0.292-0.089c1.424-0.144,2.608-0.764,3.555-1.821c0.75-0.839,1.326-1.798,1.354-2.949
		c0.06-2.455,0.039-4.913,0.093-7.368c0.01-0.463,0.151-0.948,0.344-1.373c0.213-0.467,0.547-0.881,0.841-1.309
		c0.669-0.975,1.401-1.91,2.008-2.922c1.535-2.564,2.11-5.354,1.614-8.306c-1.018-6.054-7.13-9.985-13.066-8.38
		c-3.553,0.961-5.978,3.231-7.262,6.694c-0.065,0.175-0.117,0.384-0.084,0.56c0.062,0.333,0.282,0.547,0.646,0.571
		c0.403,0.025,0.648-0.137,0.801-0.591c1.344-4.002,5.534-6.757,10.105-5.983c3.886,0.658,7.142,3.863,7.51,8.146
		c0.211,2.452-0.357,4.753-1.699,6.83c-0.62,0.96-1.313,1.872-1.977,2.804c-0.67,0.94-1.263,1.911-1.276,3.119
		c-0.002,0.215-0.104,0.292-0.315,0.291c-0.897-0.007-1.795-0.01-2.691,0.001c-0.282,0.004-0.356-0.12-0.35-0.377
		c0.014-0.469,0.008-0.937,0.002-1.405c-0.007-0.484-0.286-0.786-0.721-0.791c-0.44-0.005-0.715,0.282-0.725,0.777
		c-0.01,0.481-0.009,0.963-0.003,1.443c0.003,0.242-0.084,0.354-0.341,0.353c-0.897-0.009-1.794-0.008-2.692-0.001
		c-0.246,0.002-0.358-0.085-0.351-0.34c0.024-0.796-0.256-1.508-0.67-2.162c-0.389-0.614-0.807-1.212-1.245-1.793
		c-1.138-1.512-2.165-3.08-2.677-4.933c-0.143-0.517-0.491-0.737-0.906-0.621c-0.473,0.133-0.637,0.488-0.487,1.051
		c0.429,1.618,1.222,3.056,2.185,4.408c0.588,0.826,1.194,1.64,1.769,2.474c0.415,0.602,0.603,1.273,0.598,2.019
		c-0.015,2.288,0.001,4.577,0.008,6.866c0,0.155-0.006,0.315,0.028,0.465c0.483,2.129,1.725,3.602,3.808,4.308
		C18.873,39.86,19.394,39.922,19.898,40.03z M20.079,16.563c-0.909,0-1.818-0.004-2.727,0.001c-0.486,0.003-0.785,0.284-0.787,0.718
		c-0.001,0.436,0.295,0.718,0.779,0.724c0.532,0.007,1.065,0.018,1.597-0.003c0.33-0.013,0.435,0.117,0.423,0.432
		c-0.017,0.454-0.01,0.909-0.001,1.363c0.01,0.496,0.282,0.783,0.72,0.78c0.435-0.002,0.719-0.304,0.726-0.784
		s0.011-0.961-0.001-1.441c-0.007-0.25,0.086-0.351,0.339-0.347c0.545,0.009,1.09,0.005,1.636,0
		c0.499-0.005,0.837-0.305,0.831-0.728c-0.006-0.423-0.342-0.712-0.848-0.714C21.87,16.56,20.975,16.563,20.079,16.563z
		 M29.028,7.465c0.234-0.09,0.41-0.107,0.512-0.204c0.551-0.528,1.101-1.06,1.617-1.621c0.251-0.272,0.187-0.704-0.069-0.953
		c-0.271-0.262-0.663-0.312-0.949-0.048c-0.551,0.509-1.079,1.044-1.594,1.59c-0.213,0.225-0.243,0.542-0.063,0.791
		C28.618,7.209,28.853,7.327,29.028,7.465z M11.317,25.228c-0.166-0.207-0.292-0.448-0.49-0.591
		c-0.273-0.197-0.582-0.11-0.815,0.113c-0.505,0.484-1.004,0.976-1.484,1.483c-0.321,0.339-0.301,0.739,0.007,1.037
		c0.283,0.272,0.736,0.271,1.049-0.03c0.485-0.467,0.963-0.942,1.425-1.433C11.133,25.677,11.187,25.48,11.317,25.228z
		 M11.844,6.749c-0.102-0.238-0.127-0.408-0.225-0.51c-0.519-0.542-1.042-1.083-1.592-1.594C9.73,4.371,9.317,4.424,9.049,4.707
		C8.792,4.979,8.75,5.374,9.015,5.658c0.513,0.548,1.035,1.093,1.604,1.58c0.16,0.137,0.533,0.151,0.745,0.065
		C11.569,7.219,11.693,6.935,11.844,6.749z M31.903,26.841c-0.097-0.244-0.12-0.432-0.225-0.542
		c-0.518-0.544-1.042-1.082-1.593-1.592c-0.285-0.264-0.675-0.211-0.944,0.055c-0.271,0.268-0.332,0.658-0.07,0.942
		c0.517,0.562,1.049,1.114,1.626,1.609c0.159,0.137,0.532,0.14,0.751,0.056C31.644,27.295,31.761,27.018,31.903,26.841z
		 M6.285,14.995c0-0.001,0-0.002,0-0.003c-0.336,0-0.673,0-1.01,0c-0.026,0-0.052,0.001-0.078,0.003
		c-0.408,0.027-0.722,0.345-0.715,0.724c0.006,0.359,0.315,0.704,0.694,0.713c0.725,0.018,1.451,0.019,2.175,0
		c0.413-0.011,0.68-0.337,0.669-0.75c-0.01-0.4-0.268-0.668-0.687-0.685C6.984,14.984,6.634,14.995,6.285,14.995z M33.908,14.996
		c-0.362,0-0.726-0.011-1.088,0.002c-0.407,0.016-0.721,0.344-0.715,0.721c0.006,0.357,0.318,0.704,0.694,0.713
		c0.725,0.018,1.451,0.019,2.176,0c0.412-0.011,0.68-0.337,0.668-0.75c-0.011-0.401-0.268-0.667-0.687-0.684
		C34.607,14.984,34.258,14.995,33.908,14.996z M20.082,22.261c-0.41-0.002-0.708,0.29-0.716,0.699
		c-0.008,0.433,0.291,0.741,0.715,0.739c0.402-0.001,0.716-0.304,0.727-0.699C20.819,22.588,20.499,22.263,20.082,22.261z
		 M10.253,14.996c-0.408,0.005-0.708,0.305-0.708,0.71c-0.001,0.415,0.325,0.739,0.737,0.731c0.396-0.007,0.7-0.32,0.703-0.721
		C10.986,15.284,10.689,14.991,10.253,14.996z"/>
	<g id="XMLID_1_">
		<g>
			<path fill="#FFFFFF" d="M34.96,15c0.42,0.01,0.67,0.28,0.68,0.68c0.021,0.42-0.25,0.74-0.659,0.75c-0.73,0.02-1.461,0.02-2.181,0
				c-0.38-0.01-0.689-0.35-0.689-0.71c-0.011-0.38,0.3-0.71,0.71-0.72c0.359-0.02,0.729,0,1.09,0C34.26,15,34.61,14.98,34.96,15z"/>
			<path fill="#FFFFFF" d="M30.7,27.31c-0.58-0.489-1.11-1.04-1.63-1.609c-0.261-0.28-0.2-0.67,0.069-0.94
				c0.271-0.26,0.66-0.319,0.95-0.05c0.55,0.51,1.07,1.04,1.59,1.59c0.101,0.11,0.13,0.3,0.221,0.54
				c-0.141,0.18-0.261,0.45-0.45,0.53C31.23,27.45,30.86,27.45,30.7,27.31z"/>
			<path fill="#FFFFFF" d="M31.16,5.64c-0.521,0.56-1.07,1.09-1.62,1.62c-0.1,0.1-0.28,0.12-0.51,0.2
				c-0.181-0.13-0.41-0.25-0.55-0.44c-0.181-0.25-0.15-0.57,0.06-0.79c0.52-0.55,1.05-1.08,1.6-1.59c0.28-0.26,0.681-0.22,0.95,0.05
				C31.34,4.94,31.41,5.37,31.16,5.64z"/>
			<path fill="#FFFFFF" d="M19.36,2.9c-0.01-0.57,0.03-1.14-0.01-1.71c-0.03-0.52,0.11-0.91,0.63-1.11c0.07,0,0.15,0,0.23,0
				c0.51,0.23,0.65,0.63,0.61,1.17s0,1.09-0.011,1.63c-0.01,0.48-0.3,0.78-0.739,0.77C19.64,3.65,19.37,3.38,19.36,2.9z"/>
			<path fill="#FFFFFF" d="M20.08,22.26c0.42,0,0.74,0.33,0.729,0.74c-0.01,0.4-0.329,0.7-0.729,0.7c-0.42,0-0.72-0.311-0.71-0.74
				C19.37,22.55,19.67,22.26,20.08,22.26z"/>
			<path fill="#FFFFFF" d="M22.77,16.56c0.5,0.01,0.841,0.29,0.841,0.72c0.01,0.42-0.33,0.72-0.83,0.73c-0.54,0-1.09,0.01-1.63,0
				C20.89,18,20.8,18.1,20.81,18.35c0.011,0.48,0.011,0.96,0,1.44c-0.01,0.479-0.29,0.79-0.729,0.79c-0.44,0-0.71-0.29-0.72-0.78
				c-0.01-0.46-0.01-0.91,0-1.37c0.02-0.31-0.09-0.44-0.42-0.43c-0.53,0.02-1.06,0.01-1.6,0.01c-0.48-0.01-0.78-0.29-0.77-0.73
				c0-0.43,0.3-0.71,0.78-0.72c0.91,0,1.82,0,2.73,0C20.97,16.56,21.87,16.56,22.77,16.56z"/>
			<path fill="#FFFFFF" d="M20.44,38.5c1.359-0.07,3.109-1.34,3.3-2.43c-2.44,0-4.89,0-7.34,0C16.76,37.47,18.62,38.58,20.44,38.5z
				 M24.14,29.86c0.03-0.36-0.109-0.471-0.47-0.471c-1.83,0.021-3.66,0.011-5.49,0.011c-0.6,0-1.19,0.01-1.79,0
				c-0.24-0.011-0.36,0.06-0.35,0.33c0.02,0.479,0.01,0.96,0.01,1.439c0.07,0.04,0.09,0.061,0.11,0.061c2.57,0,5.14,0.01,7.72,0
				c0.08,0,0.23-0.181,0.24-0.28C24.15,30.58,24.11,30.22,24.14,29.86z M24.14,33.22c0.03-0.37-0.09-0.489-0.47-0.489
				c-2.26,0.02-4.52,0.01-6.78,0.01c-0.26,0-0.52,0-0.84,0c0,0.569-0.02,1.09,0.01,1.6c0.01,0.09,0.2,0.23,0.3,0.23
				c2.48,0.02,4.96,0.01,7.44,0.02c0.26,0,0.34-0.12,0.33-0.359C24.12,33.89,24.11,33.55,24.14,33.22z M11.38,18.73
				c0.52,1.85,1.54,3.42,2.68,4.93c0.44,0.58,0.86,1.18,1.25,1.79c0.41,0.66,0.69,1.37,0.67,2.16c-0.01,0.26,0.1,0.35,0.35,0.34
				c0.89,0,1.79,0,2.69,0.01c0.26,0,0.34-0.12,0.34-0.36c-0.01-0.479-0.01-0.96,0-1.439c0.01-0.5,0.29-0.78,0.73-0.78
				c0.43,0.01,0.71,0.311,0.72,0.79c0,0.47,0.011,0.94,0,1.41c-0.01,0.25,0.061,0.38,0.351,0.38c0.89-0.02,1.79-0.01,2.689-0.01
				c0.21,0.01,0.311-0.07,0.311-0.29c0.02-1.2,0.609-2.18,1.28-3.12c0.659-0.93,1.359-1.84,1.979-2.8c1.34-2.08,1.91-4.38,1.7-6.83
				c-0.37-4.28-3.63-7.49-7.51-8.15C17.03,5.99,12.84,8.74,11.5,12.75c-0.15,0.45-0.4,0.61-0.8,0.59c-0.37-0.03-0.58-0.24-0.65-0.57
				c-0.03-0.18,0.02-0.39,0.09-0.56c1.28-3.47,3.71-5.74,7.26-6.7c5.94-1.6,12.05,2.33,13.07,8.38c0.49,2.96-0.08,5.74-1.62,8.31
				c-0.6,1.01-1.34,1.95-2.01,2.92c-0.29,0.43-0.62,0.84-0.84,1.31c-0.19,0.42-0.33,0.91-0.34,1.37c-0.05,2.46-0.03,4.92-0.09,7.37
				c-0.03,1.15-0.61,2.11-1.36,2.95c-0.94,1.06-2.13,1.68-3.55,1.82c-0.101,0.01-0.2,0.06-0.29,0.09c-0.16,0-0.32,0-0.47,0
				c-0.51-0.11-1.03-0.17-1.51-0.33c-2.09-0.71-3.33-2.181-3.81-4.311c-0.04-0.149-0.03-0.31-0.03-0.47
				c-0.01-2.29-0.02-4.58-0.01-6.86c0.01-0.75-0.18-1.42-0.6-2.02c-0.57-0.84-1.18-1.65-1.76-2.48c-0.97-1.35-1.76-2.79-2.19-4.399
				c-0.15-0.57,0.02-0.92,0.49-1.05C10.89,17.99,11.24,18.21,11.38,18.73z"/>
			<path fill="#FFFFFF" d="M10.03,4.65c0.55,0.51,1.07,1.05,1.59,1.59c0.1,0.1,0.12,0.27,0.22,0.51c-0.15,0.18-0.27,0.47-0.48,0.55
				c-0.21,0.09-0.58,0.07-0.74-0.06c-0.57-0.49-1.09-1.03-1.6-1.58C8.75,5.37,8.79,4.98,9.05,4.71C9.32,4.42,9.73,4.37,10.03,4.65z"
				/>
			<path fill="#FFFFFF" d="M11.01,25.81c-0.46,0.49-0.94,0.96-1.43,1.431c-0.31,0.3-0.76,0.3-1.04,0.029
				c-0.31-0.3-0.33-0.699-0.01-1.039c0.48-0.5,0.98-1,1.48-1.48c0.24-0.22,0.54-0.31,0.82-0.11c0.19,0.141,0.32,0.38,0.49,0.591
				C11.19,25.48,11.13,25.68,11.01,25.81z"/>
			<path fill="#FFFFFF" d="M10.25,15c0.44-0.01,0.74,0.28,0.73,0.72c0,0.4-0.3,0.71-0.7,0.72c-0.41,0.01-0.74-0.32-0.74-0.73
				C9.55,15.3,9.84,15,10.25,15z"/>
			<path fill="#FFFFFF" d="M7.33,15c0.42,0.01,0.68,0.28,0.69,0.68c0.01,0.42-0.26,0.74-0.67,0.75c-0.72,0.02-1.45,0.02-2.17,0
				c-0.38-0.01-0.69-0.35-0.7-0.71c0-0.38,0.31-0.7,0.72-0.72c0.02-0.01,0.05-0.01,0.07-0.01c0.34,0,0.68,0,1.01,0c0,0,0,0,0,0.01
				C6.63,15,6.98,14.98,7.33,15z"/>
		</g>
		<g>
		</g>
	</g>
	<path display="none" fill-rule="evenodd" clip-rule="evenodd" fill="#FFFFFF" d="M16.047,31.169c0-0.483,0.011-0.964-0.004-1.443
		c-0.009-0.265,0.106-0.334,0.347-0.33c0.597,0.01,1.195,0.003,1.792,0.003c1.831,0,3.662,0.008,5.492-0.007
		c0.357-0.003,0.491,0.104,0.464,0.464c-0.026,0.362,0.013,0.729-0.019,1.09c-0.009,0.104-0.158,0.281-0.244,0.282
		c-2.57,0.011-5.141,0.004-7.711-0.002C16.141,31.226,16.119,31.205,16.047,31.169z"/>
	<path display="none" fill-rule="evenodd" clip-rule="evenodd" fill="#FFFFFF" d="M16.048,32.739c0.324,0,0.583,0,0.841,0
		c2.26,0,4.519,0.009,6.779-0.009c0.383-0.003,0.502,0.118,0.471,0.487c-0.029,0.335-0.015,0.675-0.004,1.012
		c0.008,0.241-0.07,0.357-0.331,0.357c-2.48-0.005-4.961,0-7.441-0.013c-0.105-0.001-0.296-0.145-0.3-0.229
		C16.034,33.829,16.048,33.313,16.048,32.739z"/>
	<path display="none" fill-rule="evenodd" clip-rule="evenodd" fill="#FFFFFF" d="M23.742,36.068
		c-0.188,1.089-1.943,2.366-3.306,2.427c-1.819,0.08-3.674-1.021-4.035-2.427C18.853,36.068,21.296,36.068,23.742,36.068z"/>
</g>
</svg>
