<?xml version="1.0" encoding="utf-8"?>
<!-- Generator: Adobe Illustrator 16.0.0, SVG Export Plug-In . SVG Version: 6.00 Build 0)  -->
<!DOCTYPE svg PUBLIC "-//W3C//DTD SVG 1.1//EN" "http://www.w3.org/Graphics/SVG/1.1/DTD/svg11.dtd">
<svg version="1.1" id="Layer_1" xmlns="http://www.w3.org/2000/svg" xmlns:xlink="http://www.w3.org/1999/xlink" x="0px" y="0px"
	 width="148.5px" height="40px" viewBox="0 0 148.5 40" enable-background="new 0 0 148.5 40" xml:space="preserve">
<g>
	<path display="none" fill="#FFFFFF" d="M26.503,0.01c33.454,0-20.469,0-17.407,0c-0.45,0.06-0.902,0.104-1.347,0.185
		c-4.502,0.822-7.741,4.7-7.745,9.279C-0.001,16.498,0,23.521,0.001,30.545c0,0.344,0.023,0.689,0.06,1.031
		c0.408,3.787,3.026,6.938,6.663,8.021c0.242,0.071,0.492,0.118,0.785,0.188c0-0.211,0-0.369,0-0.527
		C7.508,32.939,7.496,26.62,7.518,20.3c0.003-0.969,0.061-1.959,0.265-2.9C9.57,9.152,18.761,5.062,26.104,9.219
		c0.103,0.058,0.211,0.108,0.374,0.192c0-0.183,0-0.314,0-0.444c0-2.851-0.001-5.702,0-8.553C26.478,0.278,26.494,0.144,26.503,0.01
		z M13.41,39.977c0.128,0.006,0.202,0.015,0.275,0.015c5.629,0,11.258,0.002,16.887-0.011c0.54-0.002,1.086-0.063,1.617-0.162
		c4.555-0.864,7.688-4.901,7.657-9.315c-0.049-7.01-0.017-14.023-0.027-21.036c0-0.504-0.005-1.019-0.1-1.51
		c-0.697-3.63-2.786-6.1-6.249-7.396c-0.338-0.126-0.697-0.197-1.096-0.308c0,0.226,0,0.384,0,0.543
		c-0.001,6.345,0.006,12.689-0.016,19.035c-0.003,0.87-0.069,1.758-0.244,2.608c-1.721,8.384-10.952,12.556-18.4,8.338
		c-0.091-0.053-0.188-0.092-0.305-0.147C13.41,33.766,13.41,36.857,13.41,39.977z M103.626,18.193
		c-0.112-0.1-0.162-0.133-0.201-0.176c-1.713-1.969-5.057-1.512-6.426,0.809c-0.709,1.207-0.826,2.516-0.668,3.865
		c0.096,0.819,0.39,1.574,0.864,2.256c1.453,2.076,4.724,2.461,6.275,0.367c0.025-0.033,0.066-0.054,0.166-0.129
		c0,0.483,0,0.895,0,1.336c0.758,0,1.473,0,2.187,0c0.485,0,0.485,0,0.485-0.48c0.002-3.951,0.002-7.902,0.002-11.854
		c0-0.086-0.01-0.174,0-0.258c0.041-0.325-0.063-0.463-0.424-0.445c-0.629,0.029-1.26,0.007-1.889,0.01
		c-0.117,0-0.234,0.014-0.373,0.023C103.626,15.076,103.626,16.592,103.626,18.193z M54.51,26.521c0.789,0,1.527-0.017,2.266,0.008
		c0.32,0.01,0.428-0.076,0.422-0.408c-0.02-1,0.002-1.998-0.012-2.998c-0.004-0.291,0.094-0.381,0.383-0.377
		c0.777,0.014,1.557,0.037,2.33-0.016c2.393-0.158,4.695-1.582,4.443-4.833c-0.104-1.336-0.697-2.398-1.842-3.125
		c-0.834-0.529-1.77-0.738-2.744-0.746c-1.629-0.014-3.258-0.005-4.885-0.004c-0.117,0-0.236,0.01-0.361,0.016
		C54.51,18.213,54.51,22.342,54.51,26.521z M117.708,22.664c0-0.307,0.015-0.553-0.002-0.799c-0.024-0.393-0.039-0.791-0.11-1.18
		c-0.669-3.624-3.798-4.45-6.183-3.611c-2.14,0.754-3.425,3.131-3.022,5.553c0.315,1.92,1.375,3.279,3.25,3.848
		c1.959,0.592,3.784,0.312,5.305-1.188c0.094-0.092,0.17-0.199,0.27-0.32c-0.527-0.463-1.021-0.9-1.514-1.334
		c-1.078,0.941-2.24,1.289-3.551,0.686c-0.67-0.307-0.992-0.899-1.156-1.653C113.251,22.664,115.443,22.664,117.708,22.664z
		 M94.245,26.506c0.019-0.072,0.034-0.107,0.034-0.143c-0.004-2.025,0.046-4.051-0.032-6.074c-0.052-1.33-0.627-2.455-1.938-2.992
		c-0.56-0.23-1.183-0.357-1.785-0.412c-1.359-0.123-2.683,0.092-3.939,0.635c-0.088,0.037-0.201,0.205-0.182,0.277
		c0.182,0.611,0.393,1.213,0.602,1.846c0.154-0.051,0.279-0.092,0.406-0.133c0.912-0.297,1.842-0.453,2.805-0.326
		c1.029,0.135,1.688,0.988,1.441,1.865c-0.025,0.002-0.051,0.012-0.074,0.006c-0.119-0.029-0.236-0.063-0.355-0.094
		c-1.383-0.354-2.76-0.402-4.096,0.178c-1.137,0.492-1.629,1.43-1.627,2.631c0.002,1.174,0.514,2.064,1.592,2.584
		c1.367,0.656,3.197,0.394,4.334-0.612c0.068-0.062,0.144-0.115,0.279-0.228c0,0.379,0,0.678,0,0.992
		C92.577,26.506,93.398,26.506,94.245,26.506z M125.593,19.674c0.31-0.555,0.636-1.146,0.957-1.73
		c-1.104-0.91-3.272-1.355-4.694-0.977c-1.383,0.367-2.232,1.32-2.313,2.596c-0.09,1.432,0.479,2.294,1.94,2.871
		c0.537,0.213,1.104,0.349,1.648,0.541c0.334,0.119,0.678,0.244,0.971,0.438c0.388,0.252,0.373,0.776-0.004,1.022
		c-0.147,0.099-0.338,0.158-0.514,0.183c-1.072,0.139-2.01-0.254-2.908-0.775c-0.164-0.096-0.324-0.2-0.5-0.311
		c-0.391,0.602-0.756,1.166-1.172,1.807c0.629,0.326,1.184,0.681,1.785,0.914c1.396,0.541,2.834,0.666,4.258,0.103
		c1.094-0.433,1.641-1.293,1.736-2.453c0.096-1.17-0.418-2.014-1.441-2.525c-0.602-0.303-1.254-0.508-1.879-0.763
		c-0.398-0.161-0.816-0.298-1.178-0.522c-0.174-0.107-0.35-0.408-0.32-0.588c0.035-0.203,0.271-0.469,0.471-0.525
		c0.33-0.094,0.724-0.121,1.049-0.033C124.182,19.131,124.854,19.412,125.593,19.674z M70.916,16.973c0,0.793,0,1.525,0,2.295
		c0.379,0,0.73,0,1.127,0c0,0.193-0.002,0.352,0,0.51c0.008,1.542-0.012,3.086,0.039,4.626c0.029,0.896,0.385,1.688,1.291,2.027
		c1.133,0.426,2.273,0.348,3.368-0.188c0.084-0.041,0.184-0.152,0.186-0.234c0.017-0.646,0.011-1.293,0.011-1.918
		c-0.422,0.082-0.805,0.199-1.188,0.223c-0.754,0.043-1.031-0.241-1.033-0.998c-0.004-1.233-0.002-2.469,0-3.702
		c0-0.105,0.014-0.213,0.023-0.363c0.742,0,1.462,0,2.232,0c0-0.68-0.011-1.318,0.006-1.957c0.006-0.271-0.113-0.33-0.355-0.324
		c-0.508,0.014-1.014-0.014-1.52,0.01c-0.309,0.014-0.403-0.09-0.395-0.398c0.021-0.674,0.006-1.348,0.006-2.067
		c-0.809,0-1.57,0.008-2.332-0.005c-0.258-0.004-0.348,0.086-0.342,0.342c0.014,0.555-0.016,1.111,0.01,1.666
		c0.016,0.346-0.078,0.506-0.449,0.461C71.383,16.951,71.16,16.973,70.916,16.973z M66.309,26.521c0.738,0,1.439,0,2.143,0
		c0.523,0,0.525,0,0.525-0.515c0-3.998,0-7.998,0-11.996c0-0.074-0.006-0.148,0-0.223c0.018-0.221-0.078-0.307-0.301-0.3
		c-0.42,0.013-0.842,0.003-1.262,0.003c-0.363,0-0.729,0-1.105,0C66.309,17.855,66.309,22.16,66.309,26.521z M81.796,18.783
		c-0.032-0.018-0.063-0.035-0.096-0.053c0-0.49,0.01-0.982-0.011-1.473c-0.004-0.096-0.119-0.268-0.188-0.27
		c-0.809-0.02-1.619-0.012-2.445-0.012c0,3.199,0,6.354,0,9.521c0.881,0,1.736,0,2.644,0c0-0.18-0.002-0.336,0-0.492
		c0.018-1.234-0.002-2.469,0.059-3.701c0.07-1.416,0.896-2.391,2.162-2.648c0.272-0.057,0.558-0.07,0.838-0.104
		c0-0.938,0-1.844,0-2.77C83.275,16.73,82.363,17.494,81.796,18.783z M26.349,15.588c-0.018-0.016-0.037-0.029-0.055-0.043
		c-4.207,1.859-8.414,3.719-12.621,5.58c0.006,0.018,0.012,0.037,0.018,0.057c0.121,0,0.242,0,0.363,0
		c1.592,0,3.184,0.01,4.776-0.01c0.354-0.004,0.438,0.113,0.427,0.441c-0.021,0.604-0.003,1.211-0.003,1.813
		c0.001,0.439,0,0.878,0,1.314c0.027,0.01,0.054,0.02,0.081,0.026C21.673,21.709,24.011,18.648,26.349,15.588z"/>
	<g>
		<g opacity="0.3">
			<path d="M1.836,25.434c0,1.713-0.001,3.428,0,5.142c0,0.311,0.021,0.625,0.055,0.936c0.37,3.439,2.748,6.3,6.049,7.283
				c0.22,0.065,0.446,0.106,0.713,0.172v-0.479c-0.001-4.652-0.001-9.305,0.006-13.961C6.352,24.658,4.093,25.016,1.836,25.434z"/>
		</g>
		<g>
			<path fill="#FFFFFF" d="M1.836,24.434c0,1.713-0.001,3.428,0,5.142c0,0.311,0.021,0.625,0.055,0.936
				c0.37,3.439,2.748,6.3,6.049,7.283c0.22,0.065,0.446,0.106,0.713,0.172v-0.479c-0.001-4.652-0.001-9.305,0.006-13.961
				C6.352,23.658,4.093,24.016,1.836,24.434z"/>
		</g>
	</g>
	<g>
		<g opacity="0.3">
			<path d="M31.404,26.545c-0.584,0-1.07-0.146-1.479-0.377c-2.846,5.553-9.826,7.906-15.638,4.617
				c-0.083-0.049-0.171-0.084-0.277-0.135v8.488c0.117,0.004,0.184,0.01,0.25,0.01c5.111,0,10.222,0.004,15.333-0.008
				c0.49-0.002,0.986-0.058,1.468-0.146c4.136-0.787,6.98-4.451,6.952-8.459c-0.01-1.348-0.009-2.695-0.011-4.041
				C35.802,26.518,33.603,26.541,31.404,26.545z"/>
		</g>
		<g>
			<path fill="#FFFFFF" d="M31.404,25.545c-0.584,0-1.07-0.146-1.479-0.377c-2.846,5.553-9.826,7.906-15.638,4.617
				c-0.083-0.049-0.171-0.084-0.277-0.135v8.488c0.117,0.004,0.184,0.01,0.25,0.01c5.111,0,10.222,0.004,15.333-0.008
				c0.49-0.002,0.986-0.058,1.468-0.146c4.136-0.787,6.98-4.451,6.952-8.459c-0.01-1.348-0.009-2.695-0.011-4.041
				C35.802,25.518,33.603,25.541,31.404,25.545z"/>
		</g>
	</g>
	<path fill="#FFFFFF" d="M25.897,1.851c-0.008,0.122-0.023,0.244-0.023,0.366c-0.001,2.588,0,5.177,0,7.766c0,0.119,0,0.237,0,0.403
		c-0.148-0.076-0.246-0.122-0.339-0.174c-6.667-3.774-15.011-0.061-16.634,7.427c-0.185,0.855-0.237,1.756-0.24,2.633
		c-0.02,5.74-0.009,11.475-0.008,17.212c0,0.146,0,0.287,0,0.48C8.386,37.9,8.16,37.859,7.94,37.793
		c-3.302-0.984-5.679-3.844-6.049-7.283c-0.033-0.311-0.054-0.625-0.055-0.936C1.834,23.197,1.833,16.82,1.838,10.443
		C1.841,6.285,4.782,2.765,8.87,2.019c0.404-0.074,0.815-0.113,1.223-0.168C15.361,1.851,20.629,1.851,25.897,1.851z"/>
	<path fill="#FFFFFF" d="M14.009,38.139c0-2.834,0-5.643,0-8.488c0.106,0.052,0.195,0.086,0.277,0.136
		c6.763,3.828,15.143,0.039,16.706-7.57c0.159-0.772,0.219-1.579,0.222-2.369c0.02-5.762,0.013-11.521,0.015-17.282
		c0-0.144,0-0.288,0-0.493c0.361,0.1,0.688,0.165,0.995,0.279c3.144,1.178,5.04,3.42,5.673,6.715c0.086,0.446,0.09,0.914,0.09,1.371
		c0.009,6.367-0.02,12.732,0.025,19.099c0.028,4.008-2.816,7.672-6.952,8.459c-0.481,0.09-0.978,0.146-1.468,0.146
		c-5.111,0.012-10.222,0.008-15.333,0.008C14.193,38.148,14.126,38.143,14.009,38.139z"/>
	<path fill="#FFFFFF" d="M119.764,17.385c0-1.885,0-3.67,0-5.504c0.161-0.011,0.303-0.028,0.44-0.028
		c0.737-0.003,1.481,0.024,2.221-0.011c0.423-0.021,0.55,0.141,0.498,0.523c-0.01,0.1,0,0.203,0,0.305c0,4.65,0,9.305-0.002,13.955
		c0,0.563,0,0.563-0.571,0.563c-0.838,0-1.681,0-2.574,0c0-0.52,0-1,0-1.571c-0.115,0.091-0.164,0.114-0.193,0.153
		c-1.828,2.465-5.678,2.012-7.391-0.434c-0.56-0.803-0.902-1.689-1.015-2.656c-0.19-1.589-0.051-3.13,0.783-4.55
		c1.61-2.731,5.549-3.27,7.563-0.953C119.568,17.229,119.63,17.27,119.764,17.385z M114.229,21.62
		c0.028,0.223,0.053,0.524,0.117,0.823c0.274,1.322,1.364,2.264,2.647,2.304c1.241,0.04,2.373-0.849,2.676-2.185
		c0.123-0.524,0.142-1.098,0.08-1.638c-0.207-1.918-2.112-3.062-3.793-2.294C114.725,19.195,114.309,20.266,114.229,21.62z"/>
	<g id="XMLID_1_">
		<g>
			<path fill="#FFFFFF" d="M65.544,22.736c-0.342-0.014-0.459,0.094-0.448,0.447c0.012,1.176-0.012,2.354,0.012,3.53
				c0.012,0.4-0.118,0.495-0.494,0.472c-0.872-0.012-1.743-0.012-2.673-0.012c0-4.91,0-9.772,0-14.693
				c0.153,0,0.294-0.012,0.424-0.012c1.919,0,3.838-0.012,5.757,0c1.142,0.012,2.249,0.259,3.226,0.896
				c1.354,0.836,2.048,2.096,2.166,3.673c0.306,3.814-2.414,5.486-5.227,5.686C67.38,22.783,66.462,22.76,65.544,22.736z
				 M65.508,15.331c-0.341-0.012-0.424,0.129-0.412,0.436c0.012,0.636,0,1.26,0,1.872c0,0.647,0.012,1.283,0,1.931
				c0,0.2,0.024,0.353,0.306,0.353c0.942-0.012,1.884,0.012,2.826-0.059c1.225-0.083,2.072-1.036,2.084-2.213
				c0.012-1.236-0.742-2.131-2.013-2.237C67.369,15.331,66.438,15.366,65.508,15.331z"/>
		</g>
	</g>
	<path fill="#FFFFFF" d="M136.341,22.65c-2.661,0-5.245,0-7.905,0c0.192,0.888,0.573,1.586,1.362,1.945
		c1.541,0.711,2.908,0.299,4.183-0.81c0.58,0.512,1.158,1.028,1.781,1.573c-0.115,0.142-0.205,0.271-0.318,0.377
		c-1.787,1.763-3.939,2.094-6.244,1.398c-2.209-0.671-3.455-2.271-3.826-4.531c-0.471-2.851,1.041-5.649,3.559-6.537
		c2.808-0.988,6.492-0.015,7.277,4.253c0.086,0.454,0.1,0.926,0.129,1.388C136.357,21.998,136.341,22.287,136.341,22.65z
		 M128.462,20.652c1.599,0,3.19,0,4.789,0c-0.176-1.542-1.174-2.479-2.502-2.398C129.488,18.33,128.452,19.412,128.462,20.652z"/>
	<path fill="#FFFFFF" d="M108.721,27.171c-0.996,0-1.966,0-2.988,0c0-0.372,0-0.719,0-1.169c-0.162,0.133-0.25,0.197-0.33,0.268
		c-1.338,1.186-3.494,1.496-5.103,0.724c-1.268-0.612-1.873-1.659-1.873-3.043c-0.002-1.413,0.576-2.519,1.914-3.097
		c1.572-0.685,3.195-0.624,4.822-0.211c0.142,0.035,0.278,0.078,0.418,0.111c0.024,0.008,0.06-0.004,0.088-0.007
		c0.289-1.034-0.485-2.036-1.696-2.196c-1.134-0.148-2.229,0.034-3.302,0.385c-0.149,0.047-0.299,0.096-0.479,0.154
		c-0.246-0.742-0.494-1.451-0.707-2.172c-0.021-0.084,0.111-0.282,0.213-0.327c1.479-0.638,3.041-0.892,4.641-0.746
		c0.709,0.065,1.441,0.214,2.1,0.485c1.547,0.633,2.224,1.957,2.285,3.523c0.092,2.381,0.033,4.763,0.039,7.148
		C108.762,27.046,108.738,27.087,108.721,27.171z M103.7,22.126c-0.486,0.142-1.033,0.233-1.521,0.458
		c-0.578,0.266-0.744,0.813-0.686,1.424c0.059,0.578,0.398,0.958,0.922,1.088c0.455,0.109,0.947,0.145,1.416,0.096
		c1.252-0.125,1.998-1.004,1.98-2.213c-0.008-0.271-0.109-0.41-0.351-0.467C104.902,22.389,104.343,22.268,103.7,22.126z"/>
	<path fill="#FFFFFF" d="M145.626,19.128c-0.873-0.31-1.664-0.638-2.481-0.86c-0.383-0.104-0.849-0.072-1.236,0.038
		c-0.232,0.067-0.512,0.38-0.551,0.619c-0.037,0.212,0.17,0.567,0.375,0.694c0.426,0.263,0.918,0.424,1.385,0.615
		c0.738,0.299,1.506,0.54,2.217,0.899c1.201,0.602,1.807,1.596,1.695,2.971c-0.113,1.365-0.758,2.381-2.045,2.889
		c-1.678,0.665-3.371,0.516-5.014-0.118c-0.707-0.276-1.361-0.694-2.103-1.077c0.489-0.755,0.922-1.419,1.383-2.126
		c0.207,0.126,0.396,0.249,0.586,0.365c1.058,0.612,2.16,1.071,3.425,0.914c0.206-0.03,0.43-0.103,0.604-0.216
		c0.442-0.291,0.459-0.909,0.004-1.202c-0.345-0.231-0.752-0.378-1.144-0.519c-0.645-0.228-1.311-0.387-1.94-0.638
		c-1.72-0.679-2.39-1.692-2.283-3.38c0.095-1.501,1.093-2.624,2.72-3.057c1.676-0.445,4.229,0.078,5.528,1.149
		C146.372,17.781,145.986,18.475,145.626,19.128z"/>
	<path fill="#FFFFFF" d="M81.253,15.948c0.287,0,0.552-0.024,0.806,0.005c0.438,0.053,0.549-0.135,0.528-0.543
		c-0.03-0.652,0.004-1.307-0.01-1.961c-0.007-0.301,0.1-0.406,0.399-0.401c0.896,0.015,1.795,0.005,2.746,0.005
		c0,0.846,0.019,1.641-0.006,2.436c-0.014,0.361,0.1,0.482,0.465,0.467c0.596-0.026,1.191,0.004,1.785-0.012
		c0.285-0.008,0.426,0.061,0.418,0.383c-0.02,0.75-0.006,1.502-0.006,2.303c-0.904,0-1.754,0-2.627,0
		c-0.012,0.176-0.027,0.303-0.027,0.429c-0.002,1.453-0.004,2.906,0,4.358c0.002,0.89,0.328,1.228,1.215,1.177
		c0.455-0.027,0.902-0.167,1.4-0.262c0,0.732,0.006,1.496-0.014,2.258c-0.002,0.096-0.117,0.227-0.217,0.274
		c-1.289,0.629-2.631,0.722-3.965,0.221c-1.066-0.399-1.484-1.331-1.521-2.388c-0.058-1.813-0.037-3.629-0.045-5.446
		c-0.002-0.187,0-0.372,0-0.601c-0.468,0-0.881,0-1.328,0C81.253,17.744,81.253,16.883,81.253,15.948z"/>
	<g id="XMLID_2_">
		<g>
			<path fill="#FFFFFF" d="M75.834,27.175c0-5.134,0-10.185,0-15.329c0.447,0,0.871,0,1.307,0c0.494,0,0.989,0.023,1.483-0.012
				c0.259,0,0.364,0.094,0.354,0.353c-0.014,0.094,0,0.188,0,0.271c0,4.698,0,9.418,0,14.117c0,0.601,0,0.601-0.625,0.601
				C77.529,27.175,76.705,27.175,75.834,27.175z"/>
		</g>
	</g>
	<path fill="#FFFFFF" d="M94.063,18.082c0.67-1.52,1.742-2.419,3.489-2.357c0,1.09,0,2.158,0,3.26
		c-0.334,0.041-0.666,0.057-0.989,0.121c-1.488,0.305-2.461,1.453-2.545,3.119c-0.068,1.452-0.047,2.906-0.066,4.359
		c-0.002,0.184,0,0.368,0,0.579c-1.068,0-2.076,0-3.113,0c0-3.731,0-7.442,0-11.212c0.975,0,1.928-0.008,2.881,0.016
		c0.078,0.002,0.217,0.203,0.221,0.318c0.021,0.576,0.013,1.154,0.013,1.732C93.984,18.039,94.021,18.059,94.063,18.082z"/>
	<path fill="#FFFFFF" d="M25.757,15.994c-2.123,2.777-4.245,5.559-6.368,8.336c-0.024-0.008-0.049-0.016-0.074-0.025
		c0-0.396,0-0.795,0-1.19c0-0.552-0.017-1.101,0.002-1.648c0.01-0.299-0.066-0.405-0.388-0.399c-1.445,0.016-2.89,0.006-4.336,0.006
		c-0.109,0-0.219,0-0.329,0c-0.006-0.016-0.011-0.033-0.016-0.049c3.819-1.689,7.639-3.379,11.458-5.066
		C25.724,15.969,25.741,15.98,25.757,15.994z"/>
	<path display="none" fill="#FFFFFF" d="M98.925,21.789c0.066-1.148,0.423-2.059,1.47-2.537c1.426-0.652,3.045,0.318,3.223,1.949
		c0.051,0.457,0.033,0.943-0.068,1.389c-0.258,1.137-1.219,1.891-2.275,1.857c-1.09-0.033-2.014-0.832-2.25-1.959
		C98.971,22.236,98.95,21.979,98.925,21.789z"/>
	<path display="none" fill="#FFFFFF" d="M57.191,18.416c-0.002-0.531,0.008-1.063-0.006-1.594c-0.006-0.26,0.064-0.381,0.354-0.369
		c0.787,0.031,1.58,0,2.365,0.068c1.082,0.096,1.729,0.85,1.719,1.904c-0.01,1.004-0.732,1.809-1.773,1.885
		c-0.799,0.057-1.604,0.025-2.406,0.041c-0.23,0.006-0.256-0.127-0.254-0.307C57.193,19.502,57.191,18.959,57.191,18.416z"/>
	<path display="none" fill="#FFFFFF" d="M111.016,20.969c-0.009-1.053,0.871-1.973,1.942-2.037c1.129-0.068,1.976,0.727,2.125,2.037
		C113.727,20.969,112.37,20.969,111.016,20.969z"/>
	<path display="none" fill="#FFFFFF" d="M89.982,22.221c0.545,0.119,1.021,0.221,1.498,0.328c0.205,0.047,0.291,0.166,0.295,0.395
		c0.017,1.029-0.616,1.775-1.682,1.882c-0.396,0.039-0.816,0.014-1.201-0.082c-0.444-0.109-0.733-0.433-0.783-0.923
		c-0.051-0.521,0.093-0.985,0.582-1.211C89.104,22.418,89.57,22.34,89.982,22.221z"/>
</g>
</svg>
