<?xml version="1.0" encoding="utf-8"?>
<!-- Generator: Adobe Illustrator 16.0.0, SVG Export Plug-In . SVG Version: 6.00 Build 0)  -->
<!DOCTYPE svg PUBLIC "-//W3C//DTD SVG 1.1//EN" "http://www.w3.org/Graphics/SVG/1.1/DTD/svg11.dtd">
<svg version="1.1" id="Layer_1" xmlns="http://www.w3.org/2000/svg" xmlns:xlink="http://www.w3.org/1999/xlink" x="0px" y="0px"
	 width="40px" height="40px" viewBox="0 0 40 40" enable-background="new 0 0 40 40" xml:space="preserve">
<g>
	<path display="none" fill-rule="evenodd" clip-rule="evenodd" fill="#FFFFFF" d="M0.03,33.899c0-11.29,0-22.58,0-33.869
		c6.623,0,13.245,0,19.868,0c-0.216,0.041-0.432,0.079-0.647,0.124c-2.142,0.448-3.507,2.54-3.073,4.707
		c0.413,2.063,2.478,3.444,4.572,3.059c1.834-0.337,3.217-1.91,3.265-3.715c0.052-1.912-1.177-3.548-3.009-4.003
		c-0.263-0.065-0.53-0.114-0.795-0.17c6.622,0,13.245,0,19.867,0c0,11.29,0,22.579,0,33.869c-0.032-0.111-0.078-0.221-0.096-0.334
		c-0.189-1.287-1.164-2.396-2.421-2.671c-0.377-0.082-0.839-0.136-1.174,0.005c-1.552,0.653-3.073,0.688-4.61-0.011
		c-0.137-0.063-0.299-0.092-0.45-0.093c-1.681-0.014-3.164,1.417-3.193,3.102c-0.022,1.289-0.009,2.579-0.01,3.869
		c0,1.334,0.401,1.866,1.687,2.251c0.036,0.011,0.066,0.04,0.1,0.061c-6.57,0-13.141,0-19.711,0
		c0.058-0.028,0.113-0.067,0.174-0.083c1.071-0.266,1.604-0.917,1.609-1.993c0.006-1.342,0.012-2.685-0.005-4.026
		c-0.019-1.444-0.992-2.711-2.392-3.062c-0.396-0.1-0.892-0.156-1.248-0.007c-1.557,0.651-3.076,0.67-4.611-0.025
		c-0.125-0.057-0.274-0.084-0.412-0.086c-1.399-0.021-2.713,0.976-3.103,2.351C0.143,33.395,0.091,33.648,0.03,33.899z
		 M20.028,17.998c1.329,0,2.657,0.004,3.986-0.001c1.124-0.004,1.952-0.761,1.976-1.879c0.03-1.445,0.031-2.893-0.013-4.337
		c-0.043-1.415-1.141-2.672-2.535-2.939c-0.352-0.067-0.774-0.091-1.091,0.042c-1.553,0.652-3.078,0.666-4.612-0.027
		c-0.127-0.057-0.27-0.107-0.406-0.11c-1.612-0.026-3.143,1.37-3.199,2.982c-0.051,1.458-0.044,2.918-0.017,4.376
		c0.021,1.121,0.848,1.888,1.964,1.892C17.397,18.002,18.712,17.998,20.028,17.998z M12.556,5.935
		c-0.267,0.159-0.445,0.261-0.619,0.37C6.92,9.442,4.28,13.952,4.099,19.879c-0.017,0.529,0.191,0.777,0.601,0.78
		c0.409,0.002,0.594-0.255,0.629-0.768c0.055-0.79,0.09-1.587,0.23-2.364c0.766-4.25,2.993-7.539,6.6-9.902
		c0.111-0.073,0.235-0.127,0.364-0.196c0.02,0.075,0.038,0.104,0.03,0.121c-0.103,0.238-0.208,0.477-0.317,0.712
		c-0.223,0.482-0.148,0.833,0.219,1.001c0.358,0.165,0.67,0.012,0.893-0.448c0.397-0.82,0.792-1.641,1.182-2.464
		c0.249-0.525,0.143-0.818-0.39-1.067c-0.778-0.363-1.559-0.72-2.342-1.073c-0.451-0.204-0.796-0.105-0.961,0.261
		c-0.159,0.351-0.013,0.649,0.428,0.859C11.664,5.522,12.063,5.705,12.556,5.935z M36.131,18.595
		c-0.049-0.043-0.097-0.087-0.146-0.131c-0.009-0.008-0.025-0.015-0.027-0.025c-0.047-0.32-0.082-0.642-0.14-0.96
		c-0.84-4.633-3.189-8.282-7.142-10.86c-0.748-0.488-1.57-0.867-2.383-1.245c-0.169-0.078-0.51,0.004-0.652,0.139
		c-0.133,0.125-0.194,0.45-0.129,0.628c0.067,0.184,0.306,0.341,0.505,0.434c4.479,2.099,7.282,5.558,8.425,10.364
		c0.104,0.438,0.146,0.89,0.216,1.335c-0.054,0.026-0.108,0.053-0.162,0.079c-0.195-0.225-0.377-0.464-0.589-0.672
		c-0.322-0.316-0.658-0.326-0.929-0.058c-0.247,0.245-0.229,0.646,0.06,0.939c0.612,0.622,1.229,1.24,1.852,1.852
		c0.353,0.347,0.672,0.354,1.022,0.012c0.625-0.61,1.241-1.229,1.853-1.852c0.323-0.329,0.342-0.702,0.073-0.964
		c-0.282-0.275-0.621-0.256-0.956,0.093C36.613,17.984,36.38,18.297,36.131,18.595z M2.087,26.032
		c-0.046,1.947,1.465,3.982,3.951,3.984c2.248,0.003,3.948-1.692,3.955-3.944c0.007-2.454-1.99-3.971-3.936-3.963
		C3.856,22.117,2.093,23.851,2.087,26.032z M34.074,22.111c-2.179-0.002-3.99,1.754-3.967,3.937
		c0.025,2.258,1.716,3.947,3.979,3.977c2.162,0.027,3.931-1.78,3.936-3.929C38.026,23.875,36.281,22.113,34.074,22.111z
		 M16.365,34.294c-0.007-0.037-0.014-0.074-0.02-0.111c0.201-0.07,0.407-0.131,0.603-0.214c0.331-0.14,0.422-0.411,0.346-0.739
		c-0.074-0.317-0.31-0.437-0.615-0.424c-0.128,0.006-0.256,0.041-0.38,0.077c-0.737,0.212-1.473,0.428-2.208,0.645
		c-0.67,0.198-0.815,0.517-0.5,1.135c0.379,0.742,0.77,1.479,1.159,2.215c0.228,0.43,0.57,0.579,0.916,0.41
		c0.332-0.163,0.406-0.551,0.186-0.988c-0.145-0.286-0.292-0.57-0.478-0.931c0.212,0.04,0.337,0.055,0.457,0.088
		c1.196,0.33,2.413,0.508,3.654,0.551c2.311,0.079,4.534-0.308,6.671-1.189c0.438-0.181,0.617-0.497,0.487-0.839
		c-0.135-0.355-0.484-0.497-0.916-0.324c-1.534,0.612-3.121,0.976-4.77,1.09C19.397,34.853,17.874,34.661,16.365,34.294z"/>
	<path display="none" fill-rule="evenodd" clip-rule="evenodd" fill="#FFFFFF" d="M0.03,38.279c0.036,0.094,0.078,0.187,0.106,0.282
		c0.214,0.728,0.685,1.196,1.411,1.411c0.096,0.028,0.188,0.07,0.282,0.105c-0.6,0-1.2,0-1.799,0
		C0.03,39.479,0.03,38.879,0.03,38.279z"/>
	<path display="none" fill-rule="evenodd" clip-rule="evenodd" fill="#FFFFFF" d="M38.279,40.078
		c0.094-0.036,0.186-0.078,0.282-0.106c0.728-0.213,1.196-0.684,1.41-1.411c0.028-0.096,0.07-0.188,0.106-0.281
		c0,0.6,0,1.199,0,1.799C39.479,40.078,38.879,40.078,38.279,40.078z"/>
	<g id="XMLID_1_">
		<g>
			<path fill="#FFFFFF" d="M36.79,26.05c-0.01-1.479-1.26-2.72-2.72-2.71c-1.49,0.01-2.7,1.22-2.7,2.72s1.189,2.7,2.689,2.7
				C35.57,28.77,36.81,27.54,36.79,26.05z M38.02,26.1c0,1.86-1.329,3.471-3.1,3.841c-0.27,0.06-0.54,0.079-0.83,0.079
				c-2.27-0.02-3.96-1.71-3.979-3.97c-0.03-2.18,1.79-3.939,3.96-3.939C36.28,22.11,38.03,23.88,38.02,26.1z"/>
			<path fill="#FFFFFF" d="M38.28,40.08c-2.79,0-5.58,0-8.37,0c-0.03-0.021-0.061-0.05-0.101-0.061
				c-1.279-0.39-1.689-0.92-1.689-2.25c0-1.189-0.01-2.38,0.01-3.569c0-0.101,0-0.2,0-0.3c0.03-1.69,1.521-3.12,3.2-3.101
				c0.15,0,0.31,0.03,0.45,0.09c1.12,0.511,2.239,0.63,3.37,0.391c0.409-0.08,0.819-0.21,1.239-0.38
				c0.33-0.141,0.79-0.091,1.17-0.011c1.261,0.28,2.23,1.391,2.421,2.681c0.02,0.109,0.069,0.22,0.1,0.33c0,1.46,0,2.92,0,4.38
				c-0.04,0.09-0.08,0.18-0.11,0.279c-0.21,0.73-0.68,1.2-1.41,1.41C38.46,40,38.37,40.04,38.28,40.08z M34.07,38.78
				c1.29,0,2.58,0,3.87,0c0.579,0,0.829-0.25,0.84-0.83c0-1.3,0.029-2.601-0.021-3.91c-0.01-0.39-0.17-0.82-0.38-1.15
				c-0.46-0.75-1.189-0.949-2.01-0.649c-1.57,0.56-3.15,0.56-4.7-0.05c-0.439-0.181-0.83-0.141-1.22,0.069
				c-0.72,0.391-1.09,1.021-1.101,1.82c-0.02,1.29-0.01,2.58,0,3.87c0,0.56,0.28,0.83,0.851,0.83
				C31.49,38.78,32.78,38.78,34.07,38.78z"/>
			<path fill="#FFFFFF" d="M34.66,18.27c-0.07-0.44-0.11-0.89-0.22-1.33C33.3,12.13,30.5,8.67,26.02,6.58
				c-0.199-0.1-0.439-0.26-0.51-0.44c-0.04-0.11-0.029-0.28,0.021-0.43c0.02-0.08,0.06-0.15,0.109-0.2
				c0.141-0.13,0.48-0.21,0.65-0.14c0.82,0.38,1.64,0.76,2.39,1.25c3.95,2.58,6.301,6.23,7.141,10.86c0.06,0.32,0.09,0.64,0.14,0.96
				c0,0.01,0.021,0.02,0.03,0.02c0.04,0.05,0.09,0.09,0.14,0.13c0.25-0.29,0.48-0.61,0.75-0.89c0.34-0.35,0.68-0.36,0.96-0.09
				c0.271,0.26,0.25,0.64-0.08,0.97c-0.609,0.62-1.22,1.24-1.85,1.85c-0.311,0.301-0.59,0.33-0.891,0.101
				c-0.039-0.03-0.079-0.07-0.13-0.11c-0.62-0.62-1.239-1.23-1.85-1.86c-0.29-0.29-0.31-0.69-0.06-0.94
				c0.27-0.26,0.6-0.25,0.93,0.06c0.21,0.21,0.39,0.45,0.59,0.67C34.55,18.33,34.6,18.3,34.66,18.27z"/>
			<path fill="#FFFFFF" d="M20.06,6.76c1.49-0.01,2.69-1.22,2.69-2.72c0-1.52-1.17-2.71-2.68-2.71c-1.521,0-2.7,1.17-2.71,2.68
				C17.35,5.53,18.57,6.77,20.06,6.76z M16.18,4.86c-0.44-2.17,0.93-4.26,3.07-4.71c0.22-0.04,0.43-0.08,0.65-0.12
				c0.1,0,0.21,0,0.31,0c0.271,0.06,0.53,0.11,0.8,0.17c1.83,0.46,3.061,2.09,3,4c-0.01,0.45-0.1,0.89-0.27,1.3
				c-0.49,1.22-1.62,2.16-2.99,2.42c-1.86,0.34-3.7-0.72-4.38-2.4C16.29,5.31,16.22,5.09,16.18,4.86z"/>
			<path fill="#FFFFFF" d="M17.68,10.17c-0.56-0.23-1.02-0.11-1.46,0.2c-0.58,0.4-0.88,0.98-0.88,1.69c-0.01,1.24,0,2.48,0,3.71
				c0,0.76,0.24,1,1,1.01c1.23,0,2.45,0,3.67,0c1.28,0,2.561,0,3.83-0.01c0.67,0,0.93-0.27,0.93-0.92c0-1.26,0.011-2.52,0-3.79
				c0-0.72-0.31-1.31-0.909-1.71c-0.44-0.3-0.88-0.4-1.431-0.18C20.86,10.8,19.25,10.8,17.68,10.17z M14.12,16.1
				c-0.03-1.45-0.04-2.91,0.01-4.37c0.06-1.61,1.59-3.01,3.2-2.98c0.14,0,0.28,0.05,0.41,0.11c1.53,0.69,3.06,0.68,4.609,0.02
				c0.32-0.13,0.74-0.11,1.091-0.04c1.399,0.27,2.489,1.53,2.54,2.94c0.039,1.45,0.039,2.89,0.01,4.34
				c-0.021,1.12-0.851,1.87-1.98,1.88c-1.319,0-2.649,0-3.979,0c-1.32,0-2.63,0-3.95,0C14.96,17.99,14.14,17.23,14.12,16.1z"/>
			<path fill="#FFFFFF" d="M14.75,36.88c-0.39-0.74-0.78-1.479-1.16-2.22c-0.1-0.21-0.16-0.38-0.16-0.53c0-0.29,0.21-0.47,0.66-0.6
				c0.74-0.221,1.47-0.44,2.21-0.65c0.12-0.03,0.25-0.07,0.38-0.07c0.3-0.02,0.54,0.101,0.61,0.421c0.08,0.329-0.01,0.6-0.34,0.739
				c-0.2,0.08-0.4,0.141-0.6,0.21c0,0.04,0.01,0.08,0.02,0.11c1.5,0.37,3.03,0.56,4.59,0.45c1.65-0.11,3.23-0.471,4.771-1.09
				c0.43-0.17,0.779-0.03,0.909,0.33c0.03,0.069,0.04,0.14,0.04,0.21c0,0.26-0.18,0.489-0.52,0.63c-2.141,0.88-4.36,1.27-6.67,1.189
				c-1.25-0.05-2.46-0.22-3.66-0.55c-0.12-0.04-0.24-0.05-0.46-0.09c0.19,0.36,0.34,0.64,0.48,0.93c0.22,0.44,0.15,0.82-0.18,0.99
				C15.32,37.46,14.98,37.31,14.75,36.88z"/>
			<path fill="#FFFFFF" d="M5.56,17.53c-0.14,0.77-0.18,1.57-0.23,2.36c-0.04,0.51-0.22,0.77-0.63,0.77c-0.41,0-0.62-0.25-0.6-0.78
				C4.28,13.95,6.92,9.44,11.94,6.3c0.17-0.1,0.35-0.21,0.62-0.37c-0.5-0.22-0.9-0.41-1.29-0.6c-0.44-0.21-0.59-0.51-0.43-0.86
				C11,4.11,11.35,4.01,11.8,4.21c0.78,0.36,1.56,0.71,2.34,1.08c0.18,0.08,0.3,0.17,0.39,0.26c0.17,0.2,0.17,0.45,0,0.8
				C14.14,7.18,13.75,8,13.35,8.82c-0.22,0.46-0.54,0.61-0.89,0.44c-0.37-0.16-0.45-0.51-0.22-1c0.11-0.23,0.21-0.47,0.31-0.71
				c0.01-0.02-0.01-0.05-0.03-0.12c-0.13,0.07-0.25,0.12-0.36,0.2C8.55,9.99,6.33,13.28,5.56,17.53z"/>
			<path fill="#FFFFFF" d="M6.03,23.34c-1.48,0.01-2.72,1.25-2.72,2.72c0.01,1.49,1.23,2.7,2.72,2.7c1.51,0.01,2.71-1.18,2.71-2.68
				C8.74,24.56,7.52,23.33,6.03,23.34z M5.26,22.19c0.26-0.051,0.52-0.08,0.8-0.08C8,22.1,10,23.62,9.99,26.07
				c0,1.83-1.12,3.29-2.75,3.779c-0.38,0.11-0.78,0.17-1.2,0.17c-2.49-0.01-4-2.039-3.95-3.989C2.09,24.12,3.45,22.56,5.26,22.19z"
				/>
			<path fill="#FFFFFF" d="M8.35,32.23C6.77,32.8,5.19,32.8,3.63,32.18c-0.42-0.16-0.79-0.14-1.16,0.061
				c-0.73,0.38-1.13,0.979-1.14,1.819c0,1.29,0,2.58,0,3.87c0,0.61,0.24,0.851,0.85,0.851c1.29,0,2.58,0,3.87,0
				c1.28,0,2.56,0,3.83,0c0.6,0,0.88-0.271,0.88-0.851c0.01-1.27,0.01-2.55,0-3.83c0-0.51-0.17-0.97-0.5-1.359
				C9.74,32.12,9.11,31.96,8.35,32.23z M3.73,30.88c1.29,0.59,2.57,0.67,3.87,0.28c0.24-0.061,0.49-0.15,0.74-0.25
				c0.35-0.15,0.85-0.101,1.25,0c1.4,0.35,2.37,1.62,2.39,3.07c0,0.05,0,0.109,0,0.159c0.01,1.29,0.01,2.57,0,3.86
				c0,1.08-0.54,1.73-1.61,2c-0.06,0.01-0.11,0.05-0.17,0.08c-2.79,0-5.58,0-8.37,0C1.74,40.04,1.64,40,1.55,39.97
				c-0.73-0.21-1.2-0.68-1.41-1.41c-0.03-0.09-0.07-0.189-0.11-0.279c0-1.46,0-2.92,0-4.38c0.06-0.25,0.11-0.511,0.18-0.75
				C0.6,31.77,1.92,30.77,3.32,30.8C3.45,30.8,3.6,30.83,3.73,30.88z"/>
		</g>
		<g>
		</g>
	</g>
	<path display="none" fill-rule="evenodd" clip-rule="evenodd" fill="#FFFFFF" d="M6.054,38.777
		c-1.291-0.001-2.581,0.001-3.871-0.001c-0.609-0.001-0.85-0.241-0.851-0.851c-0.002-1.29-0.006-2.58,0.001-3.87
		c0.005-0.834,0.407-1.436,1.136-1.818c0.372-0.194,0.736-0.219,1.156-0.054c1.563,0.614,3.146,0.614,4.727,0.046
		c0.754-0.271,1.384-0.107,1.906,0.511c0.333,0.394,0.5,0.854,0.504,1.363c0.009,1.276,0.008,2.554,0.001,3.831
		c-0.003,0.58-0.284,0.841-0.878,0.842C8.608,38.778,7.331,38.777,6.054,38.777z"/>
	<path display="none" fill-rule="evenodd" clip-rule="evenodd" fill="#FFFFFF" d="M34.066,38.776c-1.291,0-2.581,0.002-3.871,0
		c-0.566-0.001-0.847-0.268-0.85-0.83c-0.008-1.29-0.02-2.581,0.004-3.87c0.015-0.8,0.384-1.423,1.099-1.812
		c0.392-0.213,0.777-0.253,1.227-0.076c1.55,0.607,3.121,0.608,4.69,0.047c0.821-0.294,1.552-0.097,2.02,0.65
		c0.21,0.336,0.36,0.766,0.374,1.158c0.047,1.302,0.02,2.606,0.018,3.909c-0.002,0.577-0.252,0.822-0.84,0.823
		C36.646,38.778,35.356,38.776,34.066,38.776z"/>
	<path display="none" fill-rule="evenodd" clip-rule="evenodd" fill="#FFFFFF" d="M22.749,4.04c-0.001,1.499-1.203,2.713-2.689,2.72
		c-1.493,0.006-2.708-1.23-2.701-2.749c0.007-1.51,1.192-2.681,2.71-2.679C21.576,1.334,22.751,2.522,22.749,4.04z"/>
	<path display="none" fill-rule="evenodd" clip-rule="evenodd" fill="#FFFFFF" d="M20.014,16.777c-1.224,0-2.448,0.002-3.672,0
		c-0.762-0.002-1.005-0.247-1.005-1.003c0-1.237-0.004-2.474,0.002-3.711c0.003-0.712,0.301-1.288,0.884-1.694
		c0.443-0.308,0.895-0.429,1.458-0.203c1.572,0.632,3.177,0.631,4.75,0c0.547-0.22,0.99-0.112,1.426,0.183
		c0.602,0.407,0.911,0.989,0.915,1.717c0.007,1.263,0.004,2.526,0.002,3.79c-0.001,0.65-0.266,0.917-0.931,0.921
		C22.565,16.781,21.29,16.777,20.014,16.777z"/>
	<path display="none" fill-rule="evenodd" clip-rule="evenodd" fill="#FFFFFF" d="M8.741,26.081
		c-0.003,1.498-1.205,2.686-2.714,2.684c-1.491-0.003-2.711-1.219-2.713-2.705c-0.002-1.467,1.24-2.713,2.714-2.722
		C7.523,23.329,8.744,24.563,8.741,26.081z"/>
	<path display="none" fill-rule="evenodd" clip-rule="evenodd" fill="#FFFFFF" d="M31.368,26.057
		c0.001-1.493,1.209-2.711,2.698-2.719c1.467-0.008,2.712,1.228,2.728,2.708c0.017,1.49-1.222,2.721-2.737,2.719
		C32.557,28.763,31.367,27.564,31.368,26.057z"/>
</g>
</svg>
